<svg width="362" height="102" viewBox="0 0 362 102" fill="none" xmlns="http://www.w3.org/2000/svg">
<g clip-path="url(#clip0_305_303)">
<path d="M61.8451 17.748V72.352C61.8451 76.466 61.0335 80.308 59.3767 83.912C57.7198 87.516 55.5557 90.644 52.8168 93.33C50.0779 96.016 46.9671 98.124 43.4167 99.654C39.8662 101.218 36.1805 101.966 32.3934 101.966C26.7466 101.966 21.5731 100.912 16.9068 98.804C12.2405 96.696 8.55484 93.84 5.81594 90.202L19.1385 80.988C20.491 82.858 22.1479 84.388 24.0753 85.544C26.0027 86.7 28.7754 87.278 32.3596 87.278C34.0841 87.278 35.741 86.836 37.364 85.986C38.9871 85.136 40.4072 83.98 41.6583 82.552C42.9094 81.124 43.9239 79.526 44.6678 77.758C45.4117 75.99 45.7836 74.188 45.7836 72.318V68.442C43.4167 70.414 40.8806 71.978 38.1417 73.168C35.4028 74.358 32.5625 74.97 29.5531 74.97C25.4616 74.97 21.6069 74.188 17.9888 72.658C14.3708 71.094 11.2261 68.986 8.58865 66.266C5.91738 63.546 3.82094 60.418 2.29932 56.814C0.743899 53.21 0 49.402 0 45.356C0 41.31 0.777713 37.366 2.36695 33.728C3.95619 30.09 6.08645 26.928 8.75772 24.276C11.4628 21.624 14.5737 19.516 18.1579 17.952C21.7421 16.388 25.5293 15.64 29.5531 15.64C32.5625 15.64 35.4366 16.252 38.1417 17.408C40.8806 18.598 43.4167 20.128 45.7836 21.998V17.782H61.8112L61.8451 17.748ZM31.3114 60.248C33.374 60.248 35.3352 59.84 37.1611 59.058C38.9871 58.276 40.5763 57.222 41.895 55.862C43.2138 54.536 44.262 52.938 45.0735 51.136C45.8512 49.3 46.257 47.328 46.257 45.254C46.257 43.18 45.8512 41.208 45.0735 39.372C44.2958 37.536 43.2138 35.972 41.895 34.646C40.5763 33.32 38.9871 32.266 37.1611 31.484C35.3352 30.702 33.374 30.294 31.3114 30.294C29.2488 30.294 27.2876 30.702 25.4616 31.484C23.6357 32.266 22.0465 33.32 20.7277 34.646C19.409 35.972 18.327 37.57 17.5493 39.372C16.7715 41.208 16.3658 43.18 16.3658 45.254C16.3658 47.328 16.7715 49.3 17.5493 51.136C18.327 52.972 19.409 54.536 20.7277 55.862C22.0465 57.188 23.6357 58.242 25.4616 59.058C27.2876 59.84 29.2488 60.248 31.3114 60.248Z" fill="#262730"/>
<path d="M140.834 74.97C136.708 74.97 132.854 74.188 129.236 72.658C125.651 71.094 122.507 68.986 119.835 66.266C117.164 63.546 115.068 60.418 113.546 56.814C112.024 53.21 111.247 49.402 111.247 45.356C111.247 41.31 112.024 37.366 113.58 33.728C115.135 30.09 117.266 26.928 119.971 24.276C122.676 21.624 125.787 19.516 129.371 17.952C132.921 16.388 136.742 15.64 140.8 15.64C144.857 15.64 148.678 16.422 152.296 18.02C155.881 19.618 159.025 21.76 161.697 24.446C164.368 27.132 166.464 30.294 167.986 33.898C169.508 37.502 170.285 41.31 170.285 45.356C170.285 49.402 169.508 53.312 167.952 56.916C166.397 60.52 164.266 63.648 161.595 66.334C158.924 69.02 155.813 71.128 152.195 72.658C148.611 74.222 144.79 74.97 140.8 74.97H140.834ZM140.901 30.294C138.703 30.294 136.708 30.736 134.95 31.586C133.192 32.436 131.67 33.592 130.453 35.02C129.202 36.448 128.255 38.08 127.545 39.882C126.835 41.684 126.497 43.486 126.497 45.254C126.497 47.022 126.801 48.926 127.443 50.694C128.086 52.462 128.999 54.06 130.25 55.488C131.467 56.916 132.989 58.072 134.815 58.922C136.607 59.772 138.636 60.214 140.935 60.214C143.234 60.214 145.229 59.772 146.988 58.922C148.746 58.072 150.268 56.916 151.485 55.488C152.702 54.06 153.683 52.462 154.325 50.694C155.001 48.926 155.34 47.124 155.34 45.254C155.34 43.384 155.002 41.65 154.291 39.882C153.581 38.114 152.635 36.482 151.383 35.02C150.132 33.592 148.645 32.436 146.886 31.586C145.128 30.736 143.133 30.294 140.935 30.294H140.901Z" fill="#262730"/>
<path d="M340.57 72.794L320.992 53.448V72.794H304.863V0H320.992V36.89L339.049 17.748H358.931L333.233 44.88L361.636 72.794H340.57Z" fill="#262730"/>
<path d="M299.115 16.15C297.593 15.844 295.531 15.572 292.555 15.572C282.952 15.572 277.035 25.194 276.73 26.282V17.748H260.601V72.794H276.73V38.726C276.73 37.876 280.991 30.294 293.096 30.294C295.565 30.294 297.188 30.804 299.115 31.926V16.15Z" fill="#262730"/>
<path d="M108.947 16.15C107.426 15.844 105.363 15.572 102.388 15.572C92.7845 15.572 86.8671 25.194 86.5628 26.282V17.748H70.4337V72.794H86.5628V38.726C86.5628 37.876 90.8233 30.294 102.929 30.294C105.397 30.294 107.02 30.804 108.947 31.926V16.15Z" fill="#262730"/>
<path d="M199.466 0H213.803L228.783 54.638L243.762 0H259.688L237.811 72.794H219.214L199.466 0Z" fill="#262730"/>
<path d="M225.604 0H211.267L196.288 54.638L181.308 0H165.416L187.26 72.794H205.857L225.604 0Z" fill="#262730"/>
</g>
<defs>
<clipPath id="clip0_305_303">
<rect width="361.636" height="102" fill="white"/>
</clipPath>
</defs>
</svg>
