<svg width="86" height="61" viewBox="0 0 86 61" fill="none" xmlns="http://www.w3.org/2000/svg">
<g clip-path="url(#clip0_305_307)">
<path d="M37.545 56.0769C37.8665 56.0331 38.1939 56.0693 38.4981 56.1824C38.8022 56.2955 39.0737 56.482 39.2885 56.7253C39.5032 56.9687 39.6545 57.2613 39.7289 57.5771C39.8033 57.893 39.7985 58.2224 39.715 58.5359C39.6397 59.2284 39.2959 59.8637 38.7575 60.3055C38.219 60.7473 37.5288 60.9604 36.835 60.899H35.113L35.878 56.0769H37.545ZM37.469 56.7929H36.553L36.016 60.1819H36.898C37.397 60.2165 37.8895 60.0528 38.2686 59.7265C38.6477 59.4002 38.8829 58.9375 38.923 58.4389C39.095 57.3789 38.606 56.7929 37.469 56.7929Z" fill="#262730"/>
<path d="M45.371 56.0769L45.254 56.7929H42.719L42.512 58.1089H44.84L44.73 58.8249H42.402L42.189 60.1819H44.759L44.649 60.8979H41.287L42.052 56.0759L45.371 56.0769Z" fill="#262730"/>
<path d="M48.823 55.987C49.3379 55.9777 49.8447 56.1165 50.283 56.387L50.173 57.11C49.7852 56.8297 49.3151 56.6869 48.837 56.704C48.237 56.704 47.811 56.869 47.749 57.296C47.597 58.309 50.373 58.005 50.098 59.696C49.939 60.688 49.044 60.984 48.149 60.984C47.551 60.9949 46.9612 60.845 46.441 60.55L46.558 59.813C47.0257 60.1211 47.576 60.2798 48.136 60.268C48.763 60.268 49.236 60.123 49.3 59.668C49.479 58.559 46.7 58.889 46.958 57.229C47.0671 56.8321 47.3159 56.4879 47.6585 56.2597C48.0011 56.0315 48.4146 55.9347 48.823 55.987Z" fill="#262730"/>
<path d="M54.2039 56.0769C54.5255 56.0331 54.8529 56.0693 55.157 56.1824C55.4612 56.2955 55.7327 56.482 55.9474 56.7253C56.1622 56.9687 56.3134 57.2613 56.3878 57.5771C56.4623 57.893 56.4575 58.2224 56.374 58.5359C56.2987 59.2282 55.955 59.8633 55.4168 60.3051C54.8786 60.7469 54.1886 60.9601 53.495 60.899H51.7729L52.538 56.0769H54.2039ZM54.128 56.7929H53.212L52.675 60.1819H53.559C54.058 60.2165 54.5505 60.0528 54.9296 59.7265C55.3087 59.4002 55.5438 58.9375 55.584 58.4389C55.754 57.3789 55.265 56.7929 54.128 56.7929Z" fill="#262730"/>
<path d="M62.03 56.0769L61.913 56.7929H59.378L59.171 58.1089H61.499L61.3889 58.8249H59.061L58.847 60.1819H61.416L61.306 60.8979H57.944L58.709 56.0759L62.03 56.0769Z" fill="#262730"/>
<path d="M68.245 56.2141L67.611 60.1891H68.445L68.328 60.8991H65.779L65.896 60.1891H66.833L67.333 57.0201L66.341 57.3711L66.458 56.6481L67.664 56.2141H68.245Z" fill="#262730"/>
<path d="M72.245 56.1249C73.595 56.1249 74.174 57.0619 73.933 58.5639C73.9101 59.2164 73.6342 59.8344 73.1637 60.287C72.6932 60.7396 72.0649 60.9914 71.412 60.9889C71 60.992 70.5934 60.8953 70.227 60.7069L70.327 60.0179C70.6469 60.2033 71.0112 60.2983 71.381 60.2929C71.7958 60.3007 72.1991 60.1566 72.515 59.8877C72.8308 59.6188 73.0375 59.2436 73.096 58.8329C72.6784 59.0636 72.2091 59.1844 71.732 59.1839C71.5297 59.204 71.3255 59.1772 71.1353 59.1055C70.9451 59.0338 70.774 58.9191 70.6354 58.7705C70.4967 58.6219 70.3942 58.4433 70.3359 58.2486C70.2775 58.0539 70.2649 57.8483 70.299 57.6479C70.3765 57.1978 70.6186 56.7926 70.9783 56.5111C71.3379 56.2296 71.7895 56.092 72.245 56.1249ZM71.088 57.6749C70.988 58.3089 71.446 58.5019 71.977 58.5019C72.4227 58.4938 72.8554 58.3497 73.217 58.0889C73.272 57.1589 72.879 56.8079 72.232 56.8079C71.9655 56.7758 71.697 56.8482 71.4828 57.0099C71.2686 57.1715 71.1253 57.4099 71.083 57.6749H71.088Z" fill="#262730"/>
<path d="M78.104 56.125C79.509 56.125 80.067 57.213 79.847 58.605C79.8225 59.2398 79.5551 59.841 79.1001 60.2845C78.6451 60.7279 78.0373 60.9797 77.402 60.988C76.002 60.988 75.446 59.9 75.666 58.508C75.6891 57.8738 75.955 57.2728 76.4088 56.8293C76.8626 56.3857 77.4695 56.1336 78.104 56.125ZM78.063 56.841C77.147 56.841 76.616 57.447 76.437 58.556C76.272 59.624 76.568 60.271 77.443 60.271C78.366 60.271 78.897 59.665 79.076 58.556C79.241 57.489 78.944 56.841 78.063 56.841Z" fill="#262730"/>
<path d="M83.6919 57.9229C83.893 57.907 84.095 57.9372 84.2826 58.0112C84.4703 58.0851 84.6386 58.2008 84.7748 58.3496C84.9109 58.4984 85.0113 58.6763 85.0683 58.8697C85.1254 59.0632 85.1375 59.2671 85.1039 59.4659C85.0289 59.9152 84.7888 60.3203 84.4307 60.6019C84.0726 60.8834 83.6223 61.0211 83.1679 60.9879C81.8109 60.9879 81.2319 60.0509 81.4729 58.5489C81.4913 58.1227 81.6169 57.7081 81.8383 57.3434C82.0596 56.9787 82.3695 56.6759 82.7392 56.4629C83.1088 56.25 83.5263 56.1338 83.9528 56.1253C84.3793 56.1167 84.801 56.216 85.1789 56.414L85.0689 57.0959C84.7513 56.9111 84.3894 56.8161 84.0219 56.8209C83.6093 56.8185 83.2096 56.9647 82.896 57.2328C82.5823 57.5009 82.3757 57.873 82.3139 58.2809C82.7345 58.0441 83.2093 57.9208 83.6919 57.9229ZM84.3189 59.4229C84.4189 58.8099 83.9679 58.6099 83.4369 58.6099C82.989 58.6179 82.554 58.7619 82.1899 59.0229C82.1279 59.9529 82.5139 60.3109 83.1539 60.3109C83.4251 60.3439 83.6985 60.2698 83.9159 60.1043C84.1332 59.9388 84.2775 59.6951 84.3179 59.4249L84.3189 59.4229Z" fill="#262730"/>
<path d="M7.08599 29.816C7.86739 29.7972 8.64122 29.9727 9.33799 30.3269L9.16399 31.4909C8.67053 31.191 8.11325 31.0118 7.53748 30.9679C6.96171 30.924 6.38369 31.0166 5.85045 31.2382C5.31722 31.4598 4.84382 31.8041 4.46876 32.2432C4.09369 32.6823 3.82756 33.2037 3.69199 33.765C3.5987 34.1225 3.59439 34.4975 3.67943 34.8571C3.76447 35.2167 3.93628 35.55 4.17985 35.8279C4.42341 36.1057 4.7313 36.3198 5.07665 36.4512C5.422 36.5827 5.79429 36.6276 6.16099 36.5819C6.58197 36.5913 7.00037 36.5137 7.38999 36.3539L7.84699 33.4819H9.07598L8.48899 37.213C7.70613 37.5379 6.86759 37.7077 6.01998 37.713C4.02898 37.713 1.98398 36.484 2.44098 33.613C2.62299 32.5243 3.19448 31.539 4.04903 30.8404C4.90358 30.1419 5.98292 29.7778 7.08599 29.816Z" fill="#262730"/>
<path d="M9.60596 37.5718L10.813 29.9568H13.837C15.229 29.9568 16.698 30.5568 16.404 32.4148C16.3244 32.9653 16.0682 33.4751 15.674 33.8675C15.2798 34.2599 14.7688 34.5138 14.218 34.5908L16.143 37.5718H14.751L12.934 34.7218H11.302L10.845 37.5718H9.60596ZM11.488 33.6228H13.326C13.7407 33.6787 14.1611 33.575 14.5023 33.3328C14.8435 33.0905 15.08 32.7277 15.164 32.3178C15.316 31.3388 14.5769 31.0888 13.7639 31.0888H11.893L11.488 33.6228Z" fill="#262730"/>
<path d="M24.045 29.9568L23.284 34.7868C23.193 35.6538 22.7614 36.4491 22.084 36.9978C21.4066 37.5466 20.539 37.8038 19.672 37.7128C17.972 37.7128 16.43 36.9188 16.779 34.7128L17.54 29.9588H18.78L18.03 34.7228C17.802 36.1148 18.541 36.5608 19.694 36.5608C19.9763 36.596 20.2628 36.574 20.5364 36.496C20.81 36.4181 21.065 36.2857 21.2864 36.107C21.5077 35.9282 21.6907 35.7067 21.8245 35.4557C21.9582 35.2046 22.0401 34.9292 22.065 34.6458L22.805 29.9578L24.045 29.9568Z" fill="#262730"/>
<path d="M28.138 29.9568C29.738 29.9568 31.249 30.5658 30.938 32.5348C30.644 34.4278 29.154 34.9608 27.348 34.9608H25.814L25.4 37.5718H24.16L25.368 29.9568H28.138ZM28.073 31.0878H26.43L25.995 33.8288H27.529C28.638 33.8288 29.52 33.5288 29.694 32.4148C29.868 31.3008 28.95 31.0918 28.073 31.0918V31.0878Z" fill="#262730"/>
<path d="M34.938 37.7129C34.4267 37.7425 33.9154 37.6532 33.4444 37.4519C32.9734 37.2506 32.5555 36.9429 32.2235 36.5528C31.8915 36.1628 31.6545 35.7011 31.531 35.204C31.4076 34.7069 31.4011 34.1879 31.512 33.6879C31.6713 32.5968 32.2235 31.6013 33.0647 30.8884C33.906 30.1754 34.9785 29.7941 36.081 29.8159C36.592 29.789 37.1023 29.8801 37.5725 30.0821C38.0426 30.284 38.46 30.5915 38.7923 30.9806C39.1246 31.3697 39.3629 31.8301 39.4887 32.3261C39.6145 32.8221 39.6246 33.3404 39.518 33.8409C39.3678 34.9381 38.8167 35.9408 37.971 36.6558C37.1253 37.3708 36.0449 37.7473 34.938 37.7129ZM35.014 36.5489C35.8075 36.5678 36.5798 36.2911 37.1807 35.7725C37.7817 35.254 38.1685 34.5306 38.266 33.7429C38.3559 33.4059 38.3645 33.0523 38.2909 32.7114C38.2173 32.3705 38.0636 32.0519 37.8427 31.782C37.6217 31.5121 37.3398 31.2986 37.0201 31.1592C36.7004 31.0197 36.3521 30.9583 36.004 30.9799C35.2115 30.9615 34.4405 31.2387 33.8412 31.7576C33.2419 32.2765 32.8572 32.9999 32.762 33.7869C32.6726 34.123 32.6641 34.4754 32.7373 34.8154C32.8105 35.1554 32.9632 35.4732 33.183 35.7427C33.4027 36.0123 33.6833 36.2258 34.0015 36.366C34.3198 36.5061 34.6668 36.5688 35.014 36.5489Z" fill="#262730"/>
<path d="M6.27803 40.481C7.7013 40.4533 9.10545 40.812 10.341 41.519L9.90103 44.386C8.88034 43.646 7.6443 43.263 6.38403 43.296C5.11803 43.314 4.55503 43.648 4.52003 44.158C4.41503 45.776 10.763 45.458 9.97203 49.751C9.46203 52.551 7.24604 53.321 4.62604 53.321C3.00592 53.3563 1.40686 52.949 0.0010376 52.143L0.476028 49.171C1.64074 50.0623 3.07265 50.5335 4.53903 50.508C5.80503 50.508 6.57903 50.208 6.64903 49.664C6.93103 47.641 0.529025 48.239 1.23203 43.913C1.61803 41.554 3.90403 40.481 6.27803 40.481Z" fill="#262730"/>
<path d="M19.011 53.0561L18.6111 51.1211H13.511L12.511 53.0561H9.09906L15.888 40.7451H19.4051L22.289 53.0561H19.011ZM14.8961 48.4841H18.0621L17.3941 45.0371C17.3067 44.5909 17.2595 44.1377 17.2531 43.6831C17.1128 44.1388 16.9303 44.5803 16.7081 45.0021L14.8961 48.4841Z" fill="#262730"/>
<path d="M26.913 40.7449L25.418 50.1539H31.046L30.589 53.0539H21.708L23.66 40.7429L26.913 40.7449Z" fill="#262730"/>
<path d="M36.691 40.7451L34.739 53.0561H31.486L33.438 40.7451H36.691Z" fill="#262730"/>
<path d="M35.999 53.0561L37.951 40.7451H40.659L44.774 47.7451C44.8045 47.0792 44.875 46.4156 44.985 45.7581L45.776 40.7461H49.03L47.077 53.0561H44.369L40.269 46.0741C40.254 46.6872 40.1952 47.2984 40.093 47.9031L39.249 53.0561H35.999Z" fill="#262730"/>
<path d="M56.405 53.0561L56.005 51.1211H50.905L49.905 53.0561H46.493L53.282 40.7451H56.799L59.683 53.0561H56.405ZM52.29 48.4841H55.456L54.788 45.0371C54.7007 44.5909 54.6535 44.1377 54.647 43.6831C54.5068 44.1388 54.3243 44.5804 54.102 45.0021L52.29 48.4841Z" fill="#262730"/>
<path d="M65.967 40.481C67.3903 40.4533 68.7944 40.812 70.03 41.519L69.59 44.386C68.5693 43.6461 67.3333 43.263 66.073 43.296C64.807 43.314 64.244 43.648 64.209 44.158C64.103 45.776 70.452 45.458 69.661 49.751C69.151 52.551 66.935 53.321 64.315 53.321C62.6949 53.3563 61.0958 52.949 59.69 52.143L60.165 49.171C61.3295 50.062 62.761 50.5332 64.227 50.508C65.493 50.508 66.267 50.208 66.337 49.664C66.618 47.641 60.217 48.239 60.92 43.913C61.308 41.554 63.593 40.481 65.967 40.481Z" fill="#262730"/>
<path d="M83.8 28.3371C83.7993 31.6123 83.0785 34.8473 81.6888 37.813C80.2991 40.7788 78.2744 43.4027 75.758 45.4991C75.305 45.8791 75.315 46.4441 75.758 46.5891C76.227 46.7421 76.709 46.3261 77.047 46.0301C79.9869 43.4077 82.3016 40.1596 83.8208 36.5248C85.3399 32.89 86.025 28.9608 85.8256 25.0263C85.6262 21.0918 84.5474 17.2521 82.6685 13.7895C80.7896 10.3268 78.1585 7.32945 74.9685 5.01769C71.7786 2.70594 68.111 1.13864 64.2355 0.431068C60.36 -0.276503 56.3752 -0.106352 52.5742 0.929008C48.7731 1.96437 45.2525 3.83861 42.2713 6.41387C39.29 8.98914 36.9239 12.1999 35.347 15.8101C35.0255 16.639 34.9083 17.533 35.0053 18.4168C35.1023 19.3005 35.4107 20.1479 35.9043 20.8872C36.398 21.6266 37.0624 22.2362 37.8415 22.6646C38.6205 23.0929 39.4913 23.3274 40.38 23.3481C41.058 21.6191 44.504 5.5681 61.555 6.0221C73.834 6.3491 83.797 16.0121 83.797 28.3381" fill="#262730"/>
<path d="M47.194 20.2091C47.194 19.6105 47.3715 19.0254 47.7041 18.5277C48.0367 18.0301 48.5094 17.6422 49.0625 17.4133C49.6155 17.1843 50.2241 17.1245 50.8111 17.2414C51.3981 17.3583 51.9373 17.6467 52.3604 18.0701C52.7836 18.4935 53.0716 19.0329 53.1881 19.62C53.3046 20.2071 53.2444 20.8156 53.0151 21.3685C52.7858 21.9214 52.3976 22.3938 51.8997 22.7261C51.4018 23.0584 50.8166 23.2355 50.218 23.2351C49.8208 23.235 49.4274 23.1566 49.0605 23.0045C48.6935 22.8523 48.3601 22.6294 48.0793 22.3484C47.7985 22.0674 47.5758 21.7339 47.4239 21.3668C47.272 20.9997 47.1939 20.6064 47.194 20.2091Z" fill="#262730"/>
<path d="M43.267 33.4999C48.0628 37.0845 53.8866 39.0273 59.874 39.0399C66.0508 39.1129 72.0698 37.0902 76.949 33.3019C76.949 33.3019 78.041 32.5599 77.176 31.8499C76.554 31.3389 75.648 31.9029 75.194 32.2179C70.7267 35.3525 65.4477 37.1276 59.994 37.3289C54.0556 37.5385 48.206 35.8421 43.301 32.4879C43.301 32.4879 42.811 32.0629 42.666 32.6209C42.574 32.9729 43.266 33.4979 43.266 33.4979" fill="#262730"/>
<path d="M71.055 30.3489C67.7843 32.2159 64.1818 33.4287 60.448 33.9199C54.5059 34.6257 48.4932 33.4249 43.278 30.4909C43.278 30.4909 42.752 30.1109 42.657 30.6799C42.597 31.0389 43.336 31.5009 43.336 31.5009C48.4634 34.6741 54.472 36.1224 60.482 35.6339C64.7957 35.2752 68.9663 33.9159 72.663 31.6639C73.1286 31.4298 73.57 31.1504 73.981 30.8299C74.0894 30.7394 74.1757 30.6254 74.2335 30.4965C74.2913 30.3677 74.3191 30.2274 74.3146 30.0862C74.3102 29.9451 74.2737 29.8068 74.2079 29.6818C74.1422 29.5569 74.0488 29.4485 73.935 29.3649C73.376 28.9259 72.902 29.2489 72.527 29.4489C72.382 29.5259 71.942 29.8569 71.056 30.3489" fill="#262730"/>
<path d="M67.855 27.8429C65.5665 29.0372 63.1271 29.9168 60.603 30.4579C54.7658 31.6827 48.69 31.0151 43.258 28.5519C43.258 28.5519 42.702 28.2179 42.658 28.7919C42.629 29.1549 43.404 29.5529 43.404 29.5529C47.4736 31.6052 51.9812 32.6368 56.5383 32.5588C61.0954 32.4807 65.5652 31.2953 69.562 29.1049C69.562 29.1049 70.304 28.7149 70.745 28.4359C71.226 28.1359 71.479 27.5249 70.745 26.9549C70.191 26.5279 69.495 26.9619 69.176 27.1229C69.048 27.1879 68.349 27.5909 67.861 27.8429" fill="#262730"/>
<path d="M64.503 25.3839C61.2197 26.9942 57.6513 27.9417 54.0017 28.1723C50.3521 28.4029 46.6929 27.9121 43.233 26.7279C43.233 26.7279 42.649 26.4449 42.655 27.0219C42.655 27.3859 43.467 27.7119 43.467 27.7119C48.9658 29.907 55.0305 30.2486 60.741 28.6849C62.6236 28.1858 64.4491 27.4921 66.188 26.6149C66.188 26.6149 66.77 26.3059 67.304 25.9929C67.4296 25.9284 67.5365 25.8326 67.6141 25.7146C67.6917 25.5967 67.7375 25.4606 67.7471 25.3198C67.7566 25.1789 67.7296 25.0379 67.6686 24.9106C67.6076 24.7832 67.5148 24.6738 67.399 24.5929C67.1825 24.4741 66.9395 24.4119 66.6925 24.4119C66.4455 24.4119 66.2025 24.4741 65.986 24.5929C65.754 24.7319 65.008 25.1269 64.504 25.3759" fill="#262730"/>
<path d="M59.941 23.5431C54.6538 25.7934 48.7702 26.2295 43.209 24.7831C43.209 24.7831 42.604 24.5501 42.657 25.1241C42.691 25.4871 43.524 25.7431 43.524 25.7431C49.0582 27.4443 55.0019 27.2497 60.413 25.1901C61.2663 24.8841 62.0956 24.5421 62.901 24.1641C62.901 24.1641 63.713 23.7761 63.891 23.6821C64.0216 23.6297 64.135 23.542 64.2186 23.4288C64.3022 23.3156 64.3526 23.1814 64.3643 23.0412C64.3759 22.9009 64.3482 22.7602 64.2844 22.6348C64.2206 22.5094 64.1232 22.4042 64.003 22.3311C63.393 21.8601 62.465 22.4231 62.183 22.5581C61.545 22.8581 60.5 23.3191 59.941 23.5431Z" fill="#262730"/>
</g>
<defs>
<clipPath id="clip0_305_307">
<rect width="86.001" height="60.988" fill="white"/>
</clipPath>
</defs>
</svg>
