<svg width="98" height="55" viewBox="0 0 98 55" fill="none" xmlns="http://www.w3.org/2000/svg">
<path d="M18.84 21.71C16.92 19.97 14.83 19.36 12.21 19.36C9.07 19.36 7.33 20.32 7.33 21.98C7.33 23.64 8.9 24.6 12.3 24.86C17.36 25.21 23.72 26.26 23.72 33.23C23.72 37.85 19.88 41.86 12.3 41.86C8.11 41.86 3.84 41.16 0 37.15L3.23 32.53C5.15 34.62 9.42 36.11 12.39 36.19C14.83 36.28 17.19 34.97 17.19 33.05C17.19 31.22 15.71 30.52 11.87 30.26C6.9 30 0.879999 28.17 0.879999 22.24C0.879999 16.31 7.25 14.04 12.13 14.04C16.32 14.04 19.46 14.82 22.51 17.53L18.84 21.71Z" fill="#262730"/>
<path d="M42.3 14.04C39.25 14.04 35.59 15.35 33.49 18.31L33.05 14.65H26.77V46.74C28.78 48.75 30.96 50.4 33.48 51.71V38.11C35.4 40.99 39.58 41.86 42.46 41.86C51.09 41.86 56.15 35.67 56.15 27.91C56.17 20.23 50.59 14.04 42.3 14.04ZM41.78 35.58C37.25 35.58 34.11 32.18 34.11 27.99C34.11 23.8 36.99 20.4 41.78 20.4C46.58 20.4 49.45 23.8 49.45 27.99C49.45 32.18 46.31 35.58 41.78 35.58Z" fill="#262730"/>
<path d="M60 41.95H66.72V14.04H60V41.95Z" fill="#262730"/>
<path d="M90.96 41.95V27.21C90.96 23.2 88.69 20.06 84.42 20.06C80.15 20.06 77.53 23.46 77.53 27.56V41.86H70.9V14.04H76.92L77.36 18.05C80.06 15.43 82.85 14.04 86.25 14.04C92.62 14.04 97.67 18.75 97.67 27.12V41.86L90.96 41.95Z" fill="#262730"/>
<path d="M58.7 2.79C58.96 2.53 59.31 2.27 59.66 2.09C58.44 1.57 57.22 1.13 55.82 0.78C54.08 0.34 52.24 0.08 50.41 0H49.02C48.76 0 48.58 0 48.32 0H47.62C46.75 0.09 45.79 0.17 44.92 0.26C43.18 0.52 41.43 0.96 39.77 1.57C38.11 2.18 36.54 2.97 35.06 3.92C32.1 5.75 29.57 8.11 27.56 10.98C29.83 8.54 32.62 6.53 35.67 5.05C37.15 4.35 38.72 3.83 40.38 3.48C41.95 3.13 43.61 2.96 45.26 2.87C46.04 2.87 46.92 2.87 47.7 2.96L48.31 3.05C48.48 3.05 48.75 3.05 48.92 3.14L49.53 3.23C49.62 3.23 49.7 3.23 49.79 3.23L50.05 3.32C52.49 3.76 54.85 4.54 57.03 5.67C57.3 4.54 57.91 3.49 58.7 2.79Z" fill="#262730"/>
<path d="M62.79 3.31006C62.62 3.31006 62.44 3.31006 62.27 3.31006C60.61 3.48006 59.04 4.62006 58.87 6.62006C58.87 6.79006 58.87 6.97006 58.87 7.14006C58.87 9.67006 60.88 10.9801 62.79 10.9801C64.71 10.9801 66.71 9.67006 66.71 7.14006C66.72 4.62006 64.71 3.31006 62.79 3.31006Z" fill="#262730"/>
<path d="M58.17 50.6701C55.21 51.8001 51.98 52.3301 48.84 52.2401C45.7 52.1501 42.65 51.4601 39.86 50.2301C38.38 49.5301 36.98 48.7501 35.67 47.7901V52.8501C36.63 53.2001 37.59 53.5501 38.55 53.9001C41.95 54.9501 45.53 55.2101 49.01 54.8601C52.41 54.5101 55.81 53.5501 58.86 51.8901C61.83 50.3201 64.44 48.2301 66.53 45.6101C64.01 47.7901 61.22 49.5301 58.17 50.6701Z" fill="#262730"/>
</svg>
