<svg xmlns="http://www.w3.org/2000/svg" width="77" height="32" fill="none" viewBox="0 0 77 32"><path fill="#fed" fill-opacity=".929" fill-rule="evenodd" d="M61.36 25.366c1.666 0 2.568.937 2.568 2.571 0 .33-.05.722-.14 1.128h-4.284v.012c.076.874.572 1.28 1.538 1.28.636 0 1.348-.152 2.034-.456l-.229 1.469c-.711.215-1.449.33-2.212.33-1.881 0-3-1.103-3-2.787 0-.976.42-1.977 1.068-2.61.623-.608 1.538-.937 2.657-.937m-.19 1.203c-.637 0-1.17.494-1.4 1.355h2.43c0-.088.012-.177.012-.278 0-.659-.407-1.077-1.043-1.077M31.672 25.404c1.945 0 3.102 1.064 3.102 2.8 0 2.039-1.488 3.483-3.865 3.483-1.92 0-3.064-1.052-3.064-2.724 0-2.128 1.436-3.56 3.827-3.56m-.115 1.368c-.839 0-1.602.9-1.602 2.179 0 .785.483 1.342 1.145 1.342.839 0 1.563-.9 1.563-2.178.013-.836-.445-1.343-1.106-1.343M11.303 25.353c1.806 0 2.772.747 2.772 1.9 0 .279-.05.646-.127 1.064l-.356 1.698c-.09.43-.204.924-.242 1.507h-1.729l.114-.9c-.47.685-1.17 1.027-2.072 1.027-1.233 0-1.996-.722-1.996-1.774 0-1.33 1.233-2.166 3.522-2.166.305 0 .623.026.966.05.013-.062.013-.138.013-.202 0-.595-.394-.924-1.144-.924q-1.05 0-1.946.456l.242-1.394a5.9 5.9 0 0 1 1.983-.342m.013 3.42c-1.119 0-1.691.33-1.691.925 0 .393.305.671.763.671.724 0 1.373-.582 1.526-1.57-.217-.026-.42-.026-.598-.026M73.528 25.353c1.805 0 2.771.747 2.771 1.9 0 .279-.05.646-.127 1.064l-.356 1.698c-.089.43-.203.924-.241 1.507h-1.73l.115-.9c-.458.685-1.17 1.027-2.072 1.027-1.234 0-1.997-.722-1.997-1.774 0-1.33 1.234-2.166 3.522-2.166.306 0 .623.026.967.05.012-.062.012-.138.012-.202 0-.595-.394-.924-1.144-.924q-1.05 0-1.945.456l.241-1.394a5.9 5.9 0 0 1 1.984-.342m.012 3.42c-1.118 0-1.69.33-1.69.925 0 .393.305.671.762.671.725 0 1.373-.582 1.526-1.57-.216-.026-.42-.026-.598-.026" clip-rule="evenodd"/><path fill="#fed" fill-opacity=".929" d="M26.001 25.391c.674 0 1.335.127 1.996.393l-.483 1.444c-.445-.203-.864-.317-1.271-.317-1.12 0-1.844.697-1.844 1.71 0 .887.598 1.457 1.538 1.457.382 0 .763-.089 1.183-.279l-.242 1.571a6.6 6.6 0 0 1-1.703.24c-1.831 0-2.963-1.127-2.963-2.76 0-2.015 1.45-3.459 3.79-3.459M56.236 25.569h1.475l-.305 1.418H55.93l-.445 2.065c-.064.253-.076.43-.076.52 0 .43.19.607.648.607q.248 0 .687-.114l-.305 1.419c-.484.076-.865.127-1.145.127-1.246 0-1.945-.659-1.945-1.799 0-.203.025-.405.063-.595l.484-2.242h-1.221l.305-1.42h1.22l.306-1.405 2.187-.583zM68.213 25.391c.674 0 1.335.127 1.996.393l-.483 1.444c-.445-.203-.864-.317-1.271-.317-1.12 0-1.844.697-1.844 1.71 0 .887.598 1.457 1.538 1.457.382 0 .763-.089 1.183-.279l-.242 1.571a6.6 6.6 0 0 1-1.703.24c-1.831 0-2.963-1.127-2.963-2.76 0-2.015 1.45-3.459 3.79-3.459"/><path fill="#fed" fill-opacity=".929" fill-rule="evenodd" d="M46.179 31.522h-2.136l-.204-1.71h-3.153l-.966 1.71h-2.263l4.755-8.03h2.67zm-4.679-3.23h2.174l-.381-3.23zM4.768 23.491c.788 0 1.36.05 1.716.203.674.304 1.056.874 1.056 1.57 0 1.064-.814 1.939-2.098 2.053 1.004.202 1.576.823 1.576 1.659a2.32 2.32 0 0 1-1.004 1.938c-.738.52-1.615.595-2.746.595H0l1.716-8.018zM2.39 30.04h.967c1.042 0 1.589-.43 1.589-1.153 0-.582-.356-.874-1.08-.874H2.822zm.725-3.331h.737c1.018 0 1.577-.406 1.577-1.026 0-.482-.356-.811-.979-.811h-.954z" clip-rule="evenodd"/><path fill="#fed" fill-opacity=".929" d="M19.593 25.404c1.233 0 1.945.747 1.945 2.077 0 .38-.063.925-.216 1.647l-.521 2.381h-2.073l.623-2.99a2.6 2.6 0 0 0 .077-.594c0-.57-.293-.874-.75-.874-.827 0-1.374.646-1.653 1.938l-.534 2.508h-2.085l1.27-6.005h1.87l-.229 1.064c.674-.76 1.437-1.152 2.276-1.152M52.358 27.152l-3.204 2.863h2.708l-.33 1.494h-5.239l.33-1.583 3.205-2.888h-2.467l.306-1.47H52.7zM38.175.628c4.738-.868 8.17-.583 8.17-.583-2.048.316-2.95.532-4.54.988-.24.064-.51.14-.8.225A35 35 0 0 1 46.84 3.35c9.257 4.313 11.082 10.245 11.087 10.26 0 0 .75 2.014 0 4.066-.61 1.672-1.767 2.951-3.992 3.838-2.225.874-5.404.95-8.227.671 0 0 3.268-.354 4.921-2.47 1.602-2.039 1.297-4.712 1.297-4.712 0-.006-.193-2.182-1.857-4.484-1.817-2.532-5.056-4.798-5.06-4.8 0 0-2.11-1.432-4.17-2.445-.801-.392-1.734-.766-2.664-1.101-.93.335-1.863.71-2.663 1.1-2.06 1.014-4.17 2.445-4.17 2.445-.005.003-3.244 2.27-5.061 4.801-1.663 2.302-1.856 4.478-1.857 4.484 0 0-.305 2.673 1.297 4.712 1.653 2.116 4.92 2.47 4.92 2.47-2.822.28-6 .203-8.225-.67-2.225-.888-3.382-2.167-3.993-3.839-.75-2.052 0-4.066 0-4.066.005-.015 1.83-5.947 11.087-10.26a35 35 0 0 1 5.836-2.093q-.439-.127-.8-.225c-1.59-.456-2.493-.672-4.54-.988 0 0 3.431-.285 8.17.583"/><path fill="#fed" fill-opacity=".929" d="M38.207 8c3.51 0 6.357 2.835 6.357 6.333s-2.846 6.333-6.357 6.333-6.357-2.835-6.357-6.333 2.846-6.334 6.357-6.334"/></svg>