<svg xmlns="http://www.w3.org/2000/svg" width="77" height="28" fill="none" viewBox="0 0 77 28"><path fill="#fed" fill-opacity=".929" d="M43.266 26.866c0 .508.283.753.736.753.454 0 .737-.245.737-.753v-2.118h.415v2.123c0 .707-.498 1.097-1.152 1.097s-1.151-.39-1.151-1.097v-2.123h.415zM11.372 24.703c.737 0 1.044.526 1.137.825l-.366.145c-.117-.276-.298-.621-.771-.621-.58 0-.937.449-.937 1.283 0 .835.356 1.284.937 1.284.473 0 .654-.345.77-.621l.367.145c-.093.3-.4.825-1.137.825-.947 0-1.352-.77-1.352-1.633 0-.861.405-1.633 1.352-1.633M17.324 24.703c.737 0 1.044.526 1.137.825l-.366.145c-.117-.276-.297-.621-.77-.621-.581 0-.937.449-.937 1.283 0 .835.356 1.284.936 1.284.474 0 .654-.345.771-.621l.366.145c-.093.3-.4.825-1.137.825-.946 0-1.351-.77-1.351-1.633 0-.861.405-1.633 1.351-1.633M29.21 24.703c.756 0 1.063.526 1.156.825l-.366.145c-.117-.276-.298-.621-.79-.621-.571 0-.928.449-.928 1.283 0 .83.352 1.28.927 1.284.43.005.79-.267.79-.834v-.005l-.677.014v-.35h1.034v1.479h-.302l-.044-.426c-.196.38-.542.471-.8.471-.913 0-1.342-.744-1.342-1.633 0-.861.405-1.633 1.342-1.633M50.062 24.703c.737 0 1.044.526 1.137.825l-.366.145c-.117-.276-.297-.621-.77-.621-.581 0-.938.449-.938 1.283 0 .835.357 1.284.937 1.284.474 0 .654-.345.771-.621l.366.145c-.093.3-.4.825-1.137.825-.946 0-1.351-.77-1.351-1.633 0-.861.405-1.633 1.351-1.633"/><path fill="#fed" fill-opacity=".929" fill-rule="evenodd" d="M55.907 24.703c.903 0 1.293.82 1.293 1.632s-.39 1.633-1.293 1.633-1.293-.82-1.293-1.633c0-.812.39-1.633 1.293-1.633m0 .349c-.56 0-.878.549-.878 1.283 0 .735.317 1.284.878 1.284s.879-.549.879-1.284c0-.734-.318-1.283-.879-1.283M63.201 27.923h-.439l-.341-.957h-1.123l-.341.957h-.44l1.191-3.175h.308zm-1.78-1.302h.878l-.44-1.238z" clip-rule="evenodd"/><path fill="#fed" fill-opacity=".929" d="M24.194 25.097h-.815v2.477h.815v.349h-2.05v-.35h.82v-2.476h-.82v-.349h2.05zM42.09 25.097h-1.717v1.03h1.473v.349h-1.473v1.447h-.415v-3.175h2.132zM53.956 25.097h-.815v2.477h.815v.349h-2.05v-.35h.82v-2.476h-.82v-.349h2.05zM14.246 26.317l.849-1.57h.463l-1.107 1.888v1.288h-.415v-1.288l-1.108-1.887h.464zM26.877 27.18l-.02-2.432h.416v3.175h-.332l-1.527-2.431.02 2.431h-.416v-3.175h.332zM47.71 27.18l-.019-2.432h.415v3.175h-.332l-1.527-2.431.02 2.431h-.416v-3.175h.332zM59.615 27.18l-.02-2.432h.416v3.175h-.332l-1.528-2.431.02 2.431h-.415v-3.175h.332zM19.632 24.753v2.82h1.722v.35h-2.137v-3.175zM64.275 24.753v2.82h1.722v.35H63.86v-3.175zM35.284 26.127h.888v.35h-.888v.847h-.415v-.848h-.888v-.35h.888v-.843h.415zM56.43 14.309q-.724 2.433-1.26 3.418-.535.985-2.037 2.023t-3.613 1.574-4.76.536q-2.933 0-4.99-.635-2.056-.635-2.865-1.653t-.676-2.149 1.211-4.754L41.206 0l8.683.034-4.326 15.296a2.53 2.53 0 0 0 .19 1.995 2.965 2.965 0 0 0 1.693-1.45L51.868.033 60.683 0zM5.7.182C8.953.175 18.067.182 19.069.18c.505.026 1.178.153 1.652.343 2.742.983 3.618 4.435 2.224 6.874-.381.667-1.021 1.319-1.192 1.481-.694.661-1.367 1.036-1.864 1.308-.641.35-1.212.579-1.629.725l1.152.605c.233.125.557.328.877.647 1.006 1.004 1.123 2.298 1.16 2.7.206 2.28-1.407 4.009-1.794 4.425-1.687 1.808-3.875 2.167-4.7 2.28-.56.078-1.125.103-1.691.103H.376c-.15-.004-.272-.027-.33-.1-.08-.089-.039-.286 0-.416l2.419-8.63c.046-.176.126-.377.288-.45.112-.059.273-.066.41-.064.073 0 3.395.026 10.04.057.147 0 .54.003 1.047-.063.39-.05.802-.104 1.275-.293a4 4 0 0 0 1.22-.78 5.3 5.3 0 0 0-2.622-.726c-.885-.02-10.102-.064-10.513-.077-.105-.003-.23-.024-.296-.112-.067-.089-.045-.209-.038-.25C3.347 9.372 5.47.908 5.626.281c.023-.058.03-.086.074-.099M30.295 17.35h5.177L34.2 21.635H20.506L26.871.225h8.515zM74.826 4.348h-5.683l-1.207 4.06h5.32l-1.211 4.073h-5.32l-1.4 4.708h6.25l-1.273 4.285H55.537L61.902.064H76.1z"/></svg>