<svg xmlns="http://www.w3.org/2000/svg" width="77" height="15" fill="none" viewBox="0 0 77 15"><path fill="#fed" fill-opacity=".929" d="M6.297.086s1.93.272 2.925 1.99c.966 1.663 1.186 3.465-.575 5.167.15.372.586 1.305 1.339 1.69.835.43 1.887.502 2.882-.557.877-.958.62-2.001.619-2.005l2.363-.458c.004.018.344 1.712-.086 3.293 0 0-1.21 1.517-3.199 1.518-1.934 0-3.623-.717-4.216-3.092-.398-.06-1.424-.153-2.153.3-.792.5-1.383 1.374-.951 2.763.389 1.245 1.441 1.532 1.441 1.532l-.778 2.262s-1.657-.559-2.824-1.718c-.007-.016-.716-1.812.273-3.522.967-1.664 2.435-2.752 4.806-2.082.26-.328.833-1.152.8-1.984-.044-.93-.505-1.876-1.931-2.205-1.262-.285-2.052.464-2.06.472L3.385 1.646C3.395 1.64 4.703.5 6.296.086"/><path fill="#fed" fill-opacity=".929" d="M7.306 10.452c.002.008.968 3.548 3.861 1.947l1.643.386.014 1.618-1.196-.243-.533-.115s-.821.43-1.484.4c-.576-.028-1.715-.2-2.392-1.846-.461-1.13.087-2.148.087-2.148"/><path fill="#fed" fill-opacity=".929" fill-rule="evenodd" d="M24.502 4.689c1.354 0 2.45.4 3.27 1.203.822.801 1.24 1.832 1.24 3.078q0 .408-.173 1.202h-6.7c.043.745.302 1.318.764 1.733.475.415 1.109.615 1.916.615.302 0 .374.029.85-.071.374-.086.836-.315 1.354-.115.274.086.462.358.634.587.173.23.303.487.303.487-.793.63-1.945.945-3.472.945-1.427 0-2.565-.43-3.387-1.26q-1.253-1.245-1.253-3.48c0-1.46.46-2.662 1.368-3.564.908-.916 2.018-1.36 3.286-1.36m.043 1.804c-1.254 0-2.032.687-2.334 2.047h4.61c-.158-1.36-.907-2.047-2.276-2.047M38.868 4.689c1.354 0 2.45.4 3.27 1.203.822.801 1.24 1.832 1.24 3.078.014.272-.058.673-.173 1.202h-6.7c.043.745.302 1.318.763 1.733.476.415 1.11.615 1.917.615.302 0 .374.029.85-.071.374-.086.836-.315 1.354-.115.274.086.461.358.634.587.173.23.303.487.303.487-.793.63-1.931.945-3.473.945-1.426 0-2.55-.43-3.386-1.26q-1.254-1.245-1.254-3.48c0-1.46.462-2.662 1.37-3.564.907-.916 2.002-1.36 3.285-1.36m.043 1.804c-1.254 0-2.032.687-2.334 2.047h4.61c-.158-1.36-.907-2.047-2.276-2.047M72.268 4.66c1.426 0 2.118.344 2.781.988.663.645.994 1.876.994 3.68v1.99c0 1.245.26 2.033.75 2.333-.188.315-.39.487-.606.573-.245.1-.461.129-.764.115a1.28 1.28 0 0 1-.85-.344 1.8 1.8 0 0 1-.504-.759c-.201.33-.547.601-1.037.802a3.8 3.8 0 0 1-1.542.315c-1.009 0-1.801-.258-2.378-.759-.576-.501-.864-1.217-.864-2.133 0-1.074.403-1.919 1.225-2.534.82-.616 1.974-.916 3.472-.916q.39 0 .908.128c0-1.102-.692-1.646-2.09-1.646-.662 0-1.224.086-1.714.258l-.303.128c-.014.015-.043.015-.057.03-.003-.007-.645-1.605.936-2.063 0 0 .606-.186 1.643-.186m.75 5.011c-1.73 0-2.594.559-2.594 1.69 0 .844.49 1.26 1.47 1.26 1.31 0 1.973-.66 1.973-1.962h-.014v-.873c-.375-.072-.648-.115-.836-.115" clip-rule="evenodd"/><path fill="#fed" fill-opacity=".929" d="M57.945 4.846h2.58v1.747h-2.58v4.08c0 .673.101 1.132.317 1.418.217.272.577.415 1.11.415a2.74 2.74 0 0 0 1.47-.43v2.005c-.505.172-1.225.258-2.176.258-.937 0-1.657-.258-2.147-.788-.505-.53-.75-1.274-.75-2.233v-4.71h-2.665l1.57-1.747h1.081V2.957l2.19-.802zM32.715 11.246c0 1.146.346 1.833 1.037 2.047-.345.645-.922.96-1.729.96-.994 0-1.498-.688-1.498-2.048V1.138l2.19-1.045zM66.908 4.689c.59 0 1.093.071 1.74.328-.022.005-.173.117-.371.46-.344.582-.119 1.49-.116 1.503-.26-.187-.85-.501-1.541-.487-.505.014-1.124.258-1.514.716-.388.458-.59 1.016-.59 1.675v5.326h-2.19V4.89h2.19v.858c.62-.687 1.369-1.059 2.392-1.059M47.023 8.454l3.127-3.579h2.637l-3.17 3.536 3.818 5.784h-2.104c-.003 0-.49.013-.749-.386-.087-.145-2.5-3.812-2.507-3.823l-1.052 1.102v3.107h-2.19V1.167l2.19-1.002zM3.746 3.694c.188 0 .39 0 .606.028 1.21.172 1.83 1.146 1.83 1.146-.01-.003-3.574-.94-3.617 2.348L1.412 8.447 0 7.645l.807-.902.36-.4s.03-.917.39-1.475c.273-.43.864-1.16 2.19-1.174M12.709 1.131l.173.515s.792.487 1.095 1.074c.26.516.691 1.575-.418 2.978-.745.954-1.904 1.002-1.916 1.002.009-.008 2.603-2.594-.231-4.28l-.49-1.604L12.334 0zM68.651 5.018l-.003-.001z"/></svg>