<svg xmlns="http://www.w3.org/2000/svg" width="77" height="22" fill="none" viewBox="0 0 77 22"><path fill="#fed" fill-opacity=".929" d="M9.7 4.626a7.3 7.3 0 0 0-1.619-.967 4.5 4.5 0 0 0-1.82-.372 6.1 6.1 0 0 0-2.414.487q-1.142.494-1.991 1.332A6.3 6.3 0 0 0 .5 7.096 6 6 0 0 0 0 9.546c0 .866.165 1.653.487 2.413q.495 1.139 1.333 1.99a6.1 6.1 0 0 0 1.991 1.346c.767.33 1.584.487 2.45.487q.959-.002 1.82-.38a7 7 0 0 0 1.62-.995v.817q0 .589-.237 1.145a3.7 3.7 0 0 1-.638 1.01c-.265.3-.566.544-.91.723a2.3 2.3 0 0 1-1.06.273q-1.141 0-1.755-.366a3.5 3.5 0 0 1-1.046-.96L1.232 18.99c.58.767 1.361 1.368 2.35 1.812q1.485.666 3.281.666 1.205-.002 2.336-.487a6.7 6.7 0 0 0 1.991-1.332 6.5 6.5 0 0 0 1.39-1.983 5.7 5.7 0 0 0 .523-2.435V3.738H9.707v.888zm-.157 6.144a3.1 3.1 0 0 1-.674.995c-.28.28-.616.501-1.003.673q-.582.249-1.24.25c-.436 0-.852-.085-1.239-.25a3.1 3.1 0 0 1-1.003-.673 3.138 3.138 0 0 1-.924-2.234 3.14 3.14 0 0 1 .924-2.234q.422-.42 1.003-.666.582-.249 1.24-.25.657.001 1.24.25c.386.165.723.387 1.002.666.28.28.502.616.674.995q.248.582.25 1.239-.002.657-.25 1.239M34.259 5.141a6.2 6.2 0 0 0-1.992-1.353 6 6 0 0 0-2.436-.501q-1.291.001-2.421.487a6.7 6.7 0 0 0-1.992 1.332 6.2 6.2 0 0 0-1.848 4.44c0 .866.165 1.653.487 2.413a6.2 6.2 0 0 0 1.333 1.99 6.3 6.3 0 0 0 1.991 1.346 6.1 6.1 0 0 0 2.457.487c.874 0 1.655-.164 2.415-.487a6.5 6.5 0 0 0 1.991-1.332 6.4 6.4 0 0 0 1.347-1.983c.33-.76.495-1.575.495-2.435 0-.859-.165-1.654-.488-2.413a6.2 6.2 0 0 0-1.332-1.99zm-1.57 5.543a3.4 3.4 0 0 1-.601 1.01c-.265.3-.58.544-.953.723-.372.179-.802.272-1.282.272q-.718-.002-1.297-.272a3 3 0 0 1-.967-.723 3.1 3.1 0 0 1-.595-1.01 3.3 3.3 0 0 1-.2-1.146c0-.394.071-.759.222-1.131.15-.38.35-.716.616-1.024a2.883 2.883 0 0 1 2.214-.995c.465 0 .888.092 1.26.272.373.179.695.422.953.723q.389.452.617 1.024c.15.38.221.759.221 1.131s-.071.774-.214 1.146zM70.595 9.452l5.452-5.714h-4.22l-3.825 4.031V0h-3.418v15.331h3.418v-4.074l4.148 4.074h4.463zM58.631 5.535V3.738h-3.417V15.33h3.417V8.156c0-.179.903-1.776 3.467-1.776a2.3 2.3 0 0 1 1.276.344V3.401a7 7 0 0 0-1.39-.121c-2.035 0-3.288 2.026-3.353 2.255M18.34 5.535V3.738h-3.417V15.33h3.417V8.156c0-.179.903-1.776 3.468-1.776a2.3 2.3 0 0 1 1.275.344V3.401a7 7 0 0 0-1.39-.121c-2.035 0-3.288 2.026-3.353 2.255M44.754 0 41.58 11.507 38.407 0H35.04l4.628 15.331h3.94L47.792 0z"/><path fill="#fed" fill-opacity=".929" d="M44.124 0h-1.87l.931 3.401zM48.465 11.507l-1.598-5.8-1.525 5.6 1.096 4.024h3.94L55.013 0H51.64z"/></svg>