<svg xmlns="http://www.w3.org/2000/svg" width="77" height="42" fill="none" viewBox="0 0 77 42"><path fill="#fed" fill-opacity=".929" d="M28.126 32.83c.712 0 1.45.095 2.116.363l-.385 1.342c-.48-.245-1.1-.42-1.697-.42-.583 0-1.367.235-1.367.934 0 1.308 2.782 1.226 2.783 3.492 0 1.998-1.567 2.72-3.355 2.72-.783 0-1.59-.186-2.325-.455l.42-1.389c.631.292 1.297.56 2 .56.782 0 1.553-.397 1.553-1.272 0-1.473-2.782-1.238-2.782-3.41 0-1.717 1.473-2.464 3.039-2.464M64.802 32.83c.714 0 1.45.095 2.117.363l-.386 1.342a3.86 3.86 0 0 0-1.694-.42c-.585 0-1.368.235-1.368.934 0 1.308 2.781 1.226 2.781 3.492 0 1.998-1.566 2.72-3.353 2.72-.783 0-1.59-.186-2.327-.455l.421-1.389c.631.292 1.298.56 2 .56.782 0 1.553-.397 1.553-1.272 0-1.473-2.78-1.238-2.78-3.41 0-1.717 1.47-2.464 3.036-2.464M14.063 38.879c-.366 1.651-1.138 2.337-2.384 2.337-1.511 0-1.917-1.06-1.917-1.644 0-.372.117-.872.187-1.214l.577-2.67h.78l-.702 3.276a2.7 2.7 0 0 0-.062.483c0 .71.505 1.083 1.183 1.083 1.153 0 1.464-1.176 1.66-2.086l.6-2.756h.778z"/><path fill="#fed" fill-opacity=".929" fill-rule="evenodd" d="M21.854 35.594c1.386 0 2.204.818 2.204 2.203 0 1.722-1.02 3.419-2.991 3.419-1.497 0-2.283-.803-2.283-2.306 0-1.54 1.074-3.316 3.07-3.316m-.023.685c-1.332 0-2.221 1.27-2.221 2.654 0 .967.506 1.597 1.488 1.597 1.34 0 2.134-1.44 2.134-2.623 0-1.043-.467-1.628-1.401-1.628" clip-rule="evenodd"/><path fill="#fed" fill-opacity=".929" d="M3.265 35.594c.81 0 1.3.163 1.667.31l-.234.672a3.3 3.3 0 0 0-1.418-.297C1.63 36.28.825 37.495.825 38.77c0 1.19.795 1.76 1.856 1.76.164 0 .482-.017.645-.07l.36-1.674H2.548l.156-.639h1.893l-.63 2.905a6 6 0 0 1-1.411.164C1.106 41.216 0 40.45 0 38.73c0-1.33.92-3.137 3.265-3.137"/><path fill="#fed" fill-opacity=".929" fill-rule="evenodd" d="M17.102 35.688c.81 0 1.744.335 1.744 1.418 0 1.073-.787 1.843-2.251 1.843h-.78l-.475 2.173h-.778l1.184-5.434zm-1.13 2.577h.412c.803 0 1.636-.164 1.636-1.044 0-.754-.576-.848-1.23-.848h-.405zM37.149 41.122h-1.637l-.28-1.87h-3.47l-1.041 1.87h-1.813l4.944-8.151h1.812zm-4.665-3.154h2.526l-.515-3.55h-.046z" clip-rule="evenodd"/><path fill="#fed" fill-opacity=".929" d="M39.331 39.836h3.203l-.28 1.286h-4.828l1.73-8.151h1.636zM44.71 41.122h-1.708l1.718-8.151h1.706zM50.897 39.16h.023l1.331-6.19h1.543l-1.765 8.152h-2.103l-1.706-6.248h-.024L46.9 41.122h-1.567l1.753-8.151h2.069z"/><path fill="#fed" fill-opacity=".929" fill-rule="evenodd" d="M60.351 41.122h-1.637l-.28-1.87h-3.471l-1.04 1.87h-1.81l4.942-8.151h1.812zm-4.664-3.154h2.525l-.514-3.55h-.047zM7.214 35.688c.764 0 2.035 0 2.035 1.323 0 .747-.601 1.362-1.326 1.471.414.257.53 1.074.639 1.495l.296 1.145h-.825l-.328-1.425c-.203-.873-.335-.989-.74-.989h-.693l-.506 2.413h-.78l1.162-5.433zm-.786 2.335h.615c.553 0 1.38-.18 1.38-.903 0-.568-.32-.747-.92-.747h-.726z" clip-rule="evenodd"/><path fill="#fed" fill-opacity=".929" d="M53.02 0c12.804 0 23.183 10.37 23.183 23.162 0 7.165-3.26 13.566-8.374 17.813h-1.791c4.977-3.567 8.222-9.402 8.222-16 0-10.864-8.783-19.67-19.62-19.67-8.983 0-16.476 5.905-18.804 14.165-1.531.183-2.082 1.164-2.086 1.17-1.135-1.28-2.99-1.164-3.65-.948C31.777 8.546 41.4 0 53.02 0"/><path fill="#fed" fill-opacity=".929" fill-rule="evenodd" d="M29.509 28.4c.457 0 1.08.1 1.07.676 0 .11-.024.274-.054.434l-.23 1.036c-.024.089-.034.248-.034.349 0 .044.01.103.024.148h-.706v-.253c-.195.219-.5.323-.789.323-.562 0-.837-.319-.837-.677 0-.493.374-.8.987-.876.667-.08.982-.046.982-.373 0-.254-.27-.313-.45-.313-.252 0-.477.118-.523.377h-.661c.09-.646.637-.851 1.22-.851m.273 1.409c-.18.105-.395.11-.598.125-.27.029-.523.095-.523.417 0 .195.184.289.389.289.438 0 .582-.303.662-.583zM34.923 28.4c.708 0 1.2.348 1.2 1.09 0 .905-.562 1.623-1.498 1.623-.718 0-1.18-.373-1.18-1.11 0-.871.562-1.603 1.478-1.603m-.025.533c-.518 0-.746.636-.746 1.07 0 .303.174.577.508.577.528 0 .757-.646.757-1.08 0-.343-.15-.567-.519-.567" clip-rule="evenodd"/><path fill="#fed" fill-opacity=".929" d="M37.454 28.4c.563 0 1.067.16 1.057.82h-.659c-.005-.218-.13-.346-.398-.346-.25 0-.433.068-.433.252 0 .116.084.184.323.26l.355.114c.378.125.676.304.676.737 0 .637-.632.876-1.225.876-.503 0-1.096-.2-1.096-.802v-.105h.658v.085c0 .234.264.349.509.349.213 0 .447-.075.447-.31 0-.178-.1-.233-.254-.283l-.542-.174c-.354-.114-.559-.254-.559-.657 0-.608.643-.816 1.141-.816M32.587 28.4c.488 0 .752.244.752.691 0 .105-.054.354-.075.444l-.319 1.508h-.707l.314-1.508c.02-.075.046-.244.046-.314 0-.154-.175-.264-.34-.264-.428 0-.647.358-.723.717l-.288 1.369h-.707l.538-2.574h.677l-.08.358h.012c.227-.283.532-.427.9-.427M65.764 23.504C53.21 35.688 39.638 27.62 39.615 27.607v-1.022c14.887 7.368 24.574-4.183 24.574-4.183zM33.26 27.684c-.035.113-.075.253-.154.367a.45.45 0 0 1-.405.2c-.149 0-.283-.045-.407-.085-.125-.044-.235-.084-.35-.084-.133 0-.179.085-.21.21h-.303c.065-.29.19-.608.628-.608.115 0 .214.045.32.084a.8.8 0 0 0 .328.089c.149 0 .214-.08.209-.173z"/><path fill="#fed" fill-opacity=".929" fill-rule="evenodd" d="M31.022 20.356c1.545 0 2.29 1.057 2.29 2.593 0 1.995-1.06 4.527-3.358 4.527-1.567 0-2.172-1.232-2.172-2.63 0-1.936 1.056-4.49 3.24-4.49m-.098 1.145c-1.381 0-1.754 2.67-1.754 3.628 0 .656.196 1.203.96 1.203 1.399 0 1.792-2.67 1.792-3.599 0-.685-.284-1.232-.998-1.232M36.568 20.356c1.545 0 2.29 1.057 2.29 2.593 0 1.995-1.057 4.527-3.357 4.527-1.566 0-2.173-1.232-2.173-2.63 0-1.936 1.056-4.49 3.24-4.49m-.098 1.145c-1.38 0-1.753 2.67-1.753 3.628 0 .656.197 1.203.96 1.203 1.4 0 1.791-2.67 1.791-3.599 0-.685-.284-1.232-.998-1.232" clip-rule="evenodd"/><path fill="#fed" fill-opacity=".929" d="M26.765 27.34h-1.478l.939-4.442h-1.673l.225-1.046c1.027-.049 1.8-.293 2.3-1.359h1.136zM62.652 21.294c-10.913 10.22-23.046 4.233-23.046 4.233v-.975c13.157 5.195 21.419-4.441 21.419-4.441z"/><path fill="#fed" fill-opacity=".929" d="M59.545 19.113c-9.187 8.88-19.953 4.474-19.953 4.474v-.833c11.538 3.111 18.4-4.727 18.409-4.738z"/><path fill="#fed" fill-opacity=".929" d="M56.452 17.015c-8.152 7.867-16.86 4.72-16.86 4.72v-.833c9.073 2.221 15.377-4.998 15.383-5.005z"/><path fill="#fed" fill-opacity=".929" d="M44.696 11.554a3.705 3.705 0 0 1 3.706 3.702 3.705 3.705 0 0 1-3.706 3.702 3.704 3.704 0 0 1-3.704-3.702 3.704 3.704 0 0 1 3.704-3.702"/></svg>