<svg xmlns="http://www.w3.org/2000/svg" width="77" height="17" fill="none" viewBox="0 0 77 17"><path fill="#fed" fill-opacity=".929" fill-rule="evenodd" d="M8.406.001a14.26 14.26 0 0 1 7.01 1.738 2.95 2.95 0 0 1 1.361 2.834 18.6 18.6 0 0 1-6.697 11.169 2.7 2.7 0 0 1-1.674.62 2.72 2.72 0 0 1-1.675-.62A18.59 18.59 0 0 1 .017 4.572a2.96 2.96 0 0 1 1.39-2.833A14.3 14.3 0 0 1 8.407.001m0 1.112A13.2 13.2 0 0 0 1.98 2.708a1.85 1.85 0 0 0-.84 1.738q.123.751.336 1.483l12.38-2.926c-.047.415-.16.82-.336 1.2a2.61 2.61 0 0 1-1.772 1.54l-2.943.696q.213-.48.307-.996a.14.14 0 0 0-.033-.122.13.13 0 0 0-.118-.04l-7.15 1.673q.375 1.046.87 2.04L7.096 7.95a2.32 2.32 0 0 0 1.321-.857l3.43-.817A3.8 3.8 0 0 1 11.53 7.4a2.46 2.46 0 0 1-1.663 1.442l-1.57.382.093-.324a.157.157 0 0 0-.174-.209L3.163 9.896q.537.944 1.193 1.808l2.091-.492A2.42 2.42 0 0 0 8.058 9.85l1.883-.469c-.002.021-.194 2.047-1.894 2.45l-3.007.713a17.6 17.6 0 0 0 2.392 2.318c.273.232.616.364.974.376.36-.011.705-.144.979-.376A17.5 17.5 0 0 0 15.67 4.433a1.83 1.83 0 0 0-.84-1.738 13.2 13.2 0 0 0-6.425-1.581" clip-rule="evenodd"/><path fill="#fed" fill-opacity=".929" d="M19.865 12.434a1.25 1.25 0 0 1-1.043.58l-2.004-.012 6.28-9.687a.7.7 0 0 1 .58-.313h2.317zM62.366 8.246l.8 4.756H60.94a.655.655 0 0 1-.65-.58l-.689-4.31-3.32 4.896h-2.717l6.315-9.704a.63.63 0 0 1 .54-.296h2.363l-2.967 4.768 6.246-4.774h3.192zM35.235 4.601a.77.77 0 0 1-.66.371h-2.798l-5.29 8.03H23.77l5.278-8.03h-3.025l1.026-1.668a.64.64 0 0 1 .539-.302h8.632z"/><path fill="#fed" fill-opacity=".929" fill-rule="evenodd" d="M39.163 13.002h-2.567l.58-2.017h-3.638l-1.825 1.739a.95.95 0 0 1-.655.26h-2.746L38.74 3.136a.64.64 0 0 1 .44-.18h2.666zm-4.212-3.39 2.555.018 1.02-3.644z" clip-rule="evenodd"/><path fill="#fed" fill-opacity=".929" d="M44.174 11.009h4.948l-1.02 1.668a.67.67 0 0 1-.579.325H40.2l6.488-10h2.747zM51.868 12.7a.67.67 0 0 1-.58.302h-2.293l6.297-9.716a.63.63 0 0 1 .521-.284h2.317z"/><path fill="#fed" fill-opacity=".929" fill-rule="evenodd" d="M74.173 13.002h-2.654l.58-2.017h-3.523l-1.935 1.831a.65.65 0 0 1-.457.186H63.32l10.272-9.664c.227-.215.528-.336.84-.336h2.44zm-4.177-3.39 2.439.018 1.037-3.655z" clip-rule="evenodd"/></svg>