<svg xmlns="http://www.w3.org/2000/svg" width="58" height="21" fill="none" viewBox="0 0 58 21"><path fill="#fed" fill-opacity=".929" d="M74.225 13.573c-.441.09-.51.16-.391.499l.813 2.323c.25-.608.62-1.675.811-2.263.11-.35.03-.47-.49-.559v-.289h1.804v.29c-.501.089-.591.179-.852.727-.251.528-.572 1.356-1.203 2.842-.673 1.595-.873 2.203-1.044 2.761-.06.21-.19.26-.35.26-.28 0-.652-.27-.652-.579 0-.159.07-.249.261-.378.371-.2.591-.419.792-.778.14-.24.2-.389.24-.508.05-.16.031-.3-.03-.47-.48-1.325-.992-2.671-1.223-3.21-.19-.468-.3-.588-.802-.668v-.289h2.316z"/><path fill="#fed" fill-opacity=".929" fill-rule="evenodd" d="M9.601 0c5.303 0 9.601 4.275 9.601 9.548 0 4.869-3.665 8.887-8.401 9.474V17.67c1.582-.237 3.161-.77 4.214-2.206H4.188c1.052 1.436 2.631 1.97 4.214 2.206v1.352C3.665 18.435 0 14.417 0 9.548 0 4.275 4.299 0 9.601 0m6.043 4.338c0 .005-.006.605-2.099 2.595-.594.565-3.186 3.106-3.606 3.517-.915.893-2.342 2.469-.543 4.572-.131-.672-.092-2.105 2.351-4.328 1.036-1.024 2.326-2.253 2.977-2.903s1.718-1.574.92-3.453m-.033 3.49c-.161.414-.516.728-1.654 1.802-.557.526-1.339 1.264-1.759 1.674-1.01.985-1.587 2.691-.647 3.718 0-.012.018-1.1 1.693-2.73 1.036-1.01.779-.761 1.418-1.385.427-.454 1.384-1.279.949-3.08m-2.158-4.462c0 .008.07.572-1.758 2.34-.566.55-3.536 3.455-4.003 3.905-1.71 1.663-2.083 4.188-.424 5.41 0 0-.936-2.068 1.676-4.622 1.04-1.018 2.846-2.784 3.56-3.485.654-.644 1.743-1.67.949-3.548m-1.228-2.298c-.08.361.023 1.051-1.77 2.788-.854.826-3.377 3.288-3.847 3.75-1.939 1.732-2.222 3.413-1.17 4.738-.122-1.594 1.763-3.315 2.054-3.578 1.139-1.033 3.94-3.848 4.537-4.44.681-.675 1.453-1.976.196-3.258M9.54.415s.263 1.068-1.064 2.393c-.544.544-3.75 3.656-4.174 4.094-1.882 1.95-1.299 3.773-.012 5.087-.332-1.186-.545-2.572 1.21-4.25 1.107-1.055 3.502-3.451 4.178-4.105.833-.803 1.398-2.058-.138-3.22M26.623 16.455c0 .548.06.588.461.638l.26.03v.289c-.24.04-1.102.16-1.824.389v-.609l-.612.38c-.3.179-.491.219-.601.219-.843 0-1.986-.708-1.986-2.164 0-1.356 1.203-2.463 2.697-2.463.1 0 .271.02.502.07v-1.276c0-.578-.06-.628-.712-.688v-.29c.602-.07 1.353-.209 1.815-.348zm-1.945-2.882c-.321 0-1.113.3-1.113 1.795 0 1.207.721 1.715 1.253 1.715.25 0 .471-.08.702-.23v-2.772a.94.94 0 0 0-.842-.508M29.986 13.164c.892 0 1.584.768 1.584 1.566 0 .2-.06.31-.27.349-.171.02-1.405.12-2.467.16.03 1.176.692 1.724 1.403 1.724.392 0 .772-.14 1.123-.459l.17.24c-.611.847-1.363 1.047-1.744 1.047-1.293 0-2.025-.987-2.025-2.134 0-.738.29-1.356.712-1.775.43-.448.982-.718 1.504-.718zm-.221.39c-.411 0-.792.448-.882 1.236.46 0 .902-.01 1.373-.03.16 0 .22-.04.22-.2 0-.508-.26-1.007-.711-1.007M45.282 13.164c1.334 0 2.236 1.027 2.236 2.234 0 1.605-1.163 2.393-2.276 2.393-1.504 0-2.296-1.117-2.296-2.214 0-1.615 1.273-2.413 2.336-2.413m-.15.37c-.481 0-.932.557-.933 1.694 0 1.237.452 2.194 1.154 2.194.47 0 .912-.32.912-1.755 0-1.296-.401-2.134-1.133-2.134" clip-rule="evenodd"/><path fill="#fed" fill-opacity=".929" d="M54.786 11.868v1.416h1.033c.11.11.09.369-.06.449h-.973v2.492c0 .788.352.898.572.898.2 0 .391-.06.552-.13l.09.31-.762.368c-.18.08-.331.12-.411.12-.722 0-1.143-.37-1.143-1.237v-2.821h-.652l-.05-.11.28-.339h.422v-.728l.962-.738z"/><path fill="#fed" fill-opacity=".929" fill-rule="evenodd" d="M58.439 13.164c.892 0 1.584.768 1.584 1.566 0 .2-.06.31-.27.349-.171.02-1.404.12-2.467.16.03 1.176.692 1.724 1.404 1.724.39 0 .772-.14 1.123-.459l.17.24c-.611.847-1.363 1.047-1.744 1.047-1.294 0-2.026-.987-2.026-2.134 0-.738.291-1.356.712-1.775.431-.448.983-.718 1.504-.718zm-.22.39c-.412 0-.793.448-.883 1.236.462 0 .903-.01 1.374-.03.16 0 .22-.04.22-.2 0-.508-.26-1.007-.712-1.007M70.225 13.164c.892 0 1.584.768 1.584 1.566 0 .2-.06.31-.271.349-.171.02-1.404.12-2.466.16.03 1.176.691 1.724 1.403 1.724.391 0 .772-.14 1.123-.459l.17.24c-.611.847-1.363 1.047-1.744 1.047-1.293 0-2.025-.987-2.025-2.134 0-.738.29-1.356.711-1.775.432-.448.983-.718 1.505-.718zm-.221.39c-.411 0-.792.448-.883 1.236.462 0 .903-.01 1.374-.03.16 0 .221-.04.221-.2 0-.508-.26-1.007-.712-1.007" clip-rule="evenodd"/><path fill="#fed" fill-opacity=".929" d="m38.498 15.777 2.096-4.587h1.905v.319c-.833.08-.873.14-.852 1.037l.09 3.69c.03.966.07 1.036.882 1.116v.32h-2.848v-.32c.772-.08.823-.15.813-1.117l-.02-3.918h-.05L38.217 17.6h-.25l-2.116-5.174h-.04l-.13 2.692c-.04.827-.04 1.276-.01 1.625.03.458.24.538.912.598v.33h-2.386v-.33c.571-.05.762-.21.832-.578.06-.33.13-.818.2-1.865l.15-2.004c.091-1.196.021-1.306-.851-1.386v-.319h1.915zM49.63 13.902c.201-.14.412-.299.643-.448.29-.19.51-.29.802-.29.802 0 1.303.579 1.303 1.566v1.904c0 .638.06.668.602.738v.3h-2.246v-.3c.48-.06.541-.11.541-.808V14.88c0-.709-.3-1.008-.772-1.008-.31 0-.592.16-.872.38v2.382c0 .638.06.678.531.738v.3h-2.326v-.3c.642-.08.692-.11.692-.768v-2.063c0-.609-.05-.649-.562-.748v-.26c.532-.08 1.123-.21 1.665-.389zM62.091 14.221h.02c.34-.588.752-1.057 1.163-1.057.381 0 .642.28.642.579s-.19.548-.431.638c-.13.06-.231.03-.291-.03-.17-.14-.291-.2-.451-.2-.221 0-.462.18-.652.639v1.844c0 .628.05.678.822.738v.3h-2.587v-.3c.572-.06.662-.11.662-.738V14.5c0-.568-.06-.608-.571-.707v-.26a8 8 0 0 0 1.674-.389zM66.028 14.221h.02c.341-.588.752-1.057 1.163-1.057.382 0 .642.28.642.579s-.19.548-.43.638c-.131.06-.231.03-.292-.03-.17-.14-.29-.2-.451-.2-.22 0-.461.18-.652.639v1.844c0 .628.05.678.823.738v.3h-2.587v-.3c.571-.06.661-.11.661-.738V14.5c0-.568-.06-.608-.571-.707v-.26a8 8 0 0 0 1.674-.389z"/><path fill="#fed" fill-opacity=".929" fill-rule="evenodd" d="M55.932 4.204c.381 0 .682.09 1.033.26a17 17 0 0 0 1.413-.13l.05.07c-.07.169-.26.468-.43.577l-.582-.04c.17.21.28.47.28.808 0 1.057-.922 1.576-1.854 1.576-.17 0-.341-.03-.502-.05-.1.08-.2.21-.2.329 0 .17.17.379.642.369.34 0 .651-.01.972-.01.622 0 1.504.18 1.504 1.196 0 1.107-1.273 2.034-2.607 2.034-1.223 0-1.815-.657-1.824-1.216 0-.23.11-.399.29-.558.231-.2.532-.4.772-.569-.39-.13-.611-.329-.742-.548a.9.9 0 0 1-.14-.489c.481-.18.802-.448.973-.638a1.38 1.38 0 0 1-.943-1.326c0-1.127 1.033-1.645 1.885-1.645zm.04 4.676c-.481 0-.702.06-.852.21-.19.169-.31.368-.31.608 0 .508.52.957 1.302.957.823 0 1.284-.439 1.284-.997 0-.359-.22-.578-.521-.678-.261-.08-.502-.1-.903-.1m-.13-4.327c-.341 0-.672.389-.672 1.136 0 .728.28 1.287.782 1.287.401 0 .682-.4.682-1.157 0-.698-.27-1.266-.792-1.266M29.362 4.204c.892 0 1.584.768 1.584 1.565 0 .2-.06.31-.271.35-.17.02-1.404.119-2.466.159.03 1.176.691 1.725 1.403 1.725.391 0 .772-.14 1.123-.459l.17.24c-.61.847-1.363 1.046-1.744 1.046-1.293 0-2.025-.987-2.025-2.133 0-.738.29-1.357.712-1.775.431-.449.982-.718 1.504-.718zm-.22.389c-.412 0-.793.448-.883 1.236.461 0 .902-.01 1.373-.03.16 0 .221-.04.221-.2 0-.508-.26-1.006-.712-1.006" clip-rule="evenodd"/><path fill="#fed" fill-opacity=".929" d="M34.104 4.204c.371 0 .702.12.873.25.14.109.18.208.18.348-.01.26-.25.499-.401.499-.06 0-.12-.03-.21-.11-.372-.329-.702-.479-1.013-.479-.492 0-.983.45-.983 1.506 0 1.346.953 1.785 1.434 1.785.421 0 .722-.11 1.123-.459l.18.23c-.45.617-1.113 1.056-1.714 1.056-1.334 0-2.116-1.027-2.116-2.103 0-.748.361-1.436 1.013-1.925.602-.448 1.243-.598 1.624-.598z"/><path fill="#fed" fill-opacity=".929" fill-rule="evenodd" d="M43.409 4.204c1.333 0 2.236 1.027 2.236 2.233 0 1.606-1.163 2.393-2.276 2.393-1.504 0-2.296-1.116-2.296-2.213 0-1.615 1.273-2.413 2.336-2.413m-.15.369c-.482 0-.933.558-.933 1.695 0 1.236.451 2.193 1.153 2.193.472 0 .912-.319.912-1.755 0-1.296-.4-2.133-1.132-2.133M51.1 4.204c1.333 0 2.235 1.027 2.235 2.233 0 1.606-1.163 2.393-2.276 2.393-1.504 0-2.296-1.116-2.296-2.213 0-1.615 1.273-2.413 2.336-2.413m-.151.369c-.481 0-.932.558-.932 1.695 0 1.236.45 2.193 1.152 2.193.472 0 .913-.319.913-1.755 0-1.296-.401-2.133-1.133-2.133" clip-rule="evenodd"/><path fill="#fed" fill-opacity=".929" d="M64.094 4.204c.37 0 .702.12.872.25.14.109.18.208.18.348-.01.26-.25.499-.4.499-.06 0-.12-.03-.211-.11-.371-.33-.702-.479-1.013-.479-.491 0-.982.45-.983 1.506 0 1.346.953 1.785 1.434 1.785.421 0 .722-.11 1.123-.459l.18.23c-.45.617-1.112 1.056-1.714 1.056-1.333 0-2.115-1.027-2.115-2.103 0-.748.36-1.436 1.012-1.925.602-.448 1.243-.598 1.625-.598z"/><path fill="#fed" fill-opacity=".929" fill-rule="evenodd" d="M67.904 4.204c1.333 0 2.236 1.027 2.236 2.233 0 1.606-1.163 2.393-2.276 2.393-1.504 0-2.296-1.116-2.296-2.213 0-1.615 1.273-2.413 2.336-2.413m-.15.369c-.482 0-.933.558-.933 1.695 0 1.236.451 2.193 1.153 2.193.471 0 .912-.319.912-1.755 0-1.296-.4-2.133-1.132-2.133" clip-rule="evenodd"/><path fill="#fed" fill-opacity=".929" d="M27.724 2.097c.013.559.054 1.159.095 1.683l-.328.02c-.119-.507-.238-.82-.387-.993-.179-.202-.397-.263-1.043-.263h-.536v4.85c0 .84.09.922.993.993v.324H23.42v-.324c.854-.071.953-.152.953-.992v-4.85h-.447c-.814 0-1.003.09-1.142.283-.149.172-.258.496-.378.982h-.337c.034-.585.082-1.123.108-1.713zM37.323 4.942c.2-.14.41-.3.641-.449.291-.19.512-.29.803-.29.802.001 1.303.58 1.303 1.566v1.905c0 .638.06.668.602.738v.299h-2.246v-.3c.481-.06.541-.11.541-.807V5.919c0-.708-.3-1.008-.772-1.008-.31 0-.591.16-.872.38v2.383c0 .638.06.678.531.738v.299h-2.326v-.3c.642-.08.692-.11.692-.767V5.58c0-.608-.05-.648-.562-.748v-.26c.532-.08 1.124-.209 1.665-.388zM47.71 7.634c0 .668.07.718.692.778v.299h-2.476v-.3c.611-.08.681-.13.681-.777V3.017c0-.638-.05-.658-.641-.728V2.02c.561-.06 1.263-.209 1.744-.349zM60.404 7.604c0 .678.05.738.671.808v.299H58.64v-.3c.602-.06.662-.11.662-.807V5.6c0-.638-.05-.678-.581-.758v-.28c.571-.069 1.173-.199 1.684-.368zM51.26 2.07c.1-.06.842-.14.992-.11l.05.1L51 3.815l-.3-.13c.16-.428.49-1.425.561-1.615M59.793 2.22c.35 0 .63.279.63.638a.636.636 0 0 1-1.273 0c0-.36.291-.638.642-.638"/></svg>