<svg xmlns="http://www.w3.org/2000/svg" width="77" height="38" fill="none" viewBox="0 0 77 38"><path fill="#fed" fill-opacity=".929" d="M75.746 33.42c0 2.33-1.826 4.127-4.122 4.127H4.123c-2.297 0-4.091-1.797-4.091-4.127zM12.6 12.594c3.592 0 6.417 2.834 6.417 6.167 0 3.362-2.826 6.194-6.417 6.164-3.59 0-6.416-2.832-6.416-6.164 0-3.333 2.825-6.167 6.416-6.167M63.175 12.594c3.59 0 6.419 2.834 6.419 6.167 0 3.362-2.828 6.164-6.42 6.164-3.59 0-6.416-2.832-6.416-6.164 0-3.333 2.825-6.167 6.416-6.167"/><path fill="#fed" fill-opacity=".929" fill-rule="evenodd" d="M76.01 31.383H23.465c1.264-.266 2.292-1.793 2.559-2.062l5.655-7.199 2.294 3.097 2.561-3.333-2.297-2.831 3.33-4.367 2.058-2.564c.235-.265.5-.533.5-1.034v-.766c-.265-1.268-1.529-1.8-2.559-1.536-.264.266-.767.504-1.032.77l-1.029 1.532-3.593 4.632-4.885-6.164c-.794-.767-2.063-1.032-3.093-.265-.764.767-1.03 2.065-.264 2.831l5.387 6.93-6.681 8.731c-2.826 3.363-5.653 4.131-7.449 4.131H.032V6.962H52.37c-1.266.266-2.297 1.797-2.562 2.063l-5.652 7.198-2.294-3.096-2.561 3.332 2.294 2.832-3.326 4.364-2.062 2.566c-.765.767-.762 2.065.268 2.832.5.265 1.293.532 1.794.268.265-.266.767-.504 1.032-.77l1.029-1.532 3.59-4.632 4.888 6.165c.795.767 2.06 1.031 3.09.265.766-.767 1.033-2.065.268-2.832l-5.388-6.93 6.917-8.76c3.062-3.864 6.418-4.13 7.95-4.13H76.01zM12.573 8.466c-5.917 0-10.54 4.631-10.54 10.295.001 5.663 4.623 10.292 10.54 10.292S23.11 24.423 23.11 18.76c0-5.634-4.623-10.265-10.54-10.295m50.574 0c-5.917 0-10.54 4.632-10.54 10.295.001 5.663 4.623 10.292 10.54 10.292s10.538-4.63 10.539-10.292c0-5.634-4.622-10.266-10.54-10.295" clip-rule="evenodd"/><path fill="#fed" fill-opacity=".929" d="M71.652 0c2.296 0 4.358 1.798 4.33 4.128H0C0 1.798 1.827 0 4.123 0z"/></svg>