<svg xmlns="http://www.w3.org/2000/svg" width="79" height="64" fill="none" viewBox="0 0 79 64" preserveAspectRatio="xMidYMid meet"><path fill="#fed" fill-opacity=".929" fill-rule="evenodd" d="M22.462 56.616c1.075 0 .97 1.575.845 2.358-.116.728-.566 2.366-1.605 2.366-.416 0-.636-.26-.744-.603h-.018l-.438 2.754h-1.274l1.079-6.785h1.274l-.09.558h.019c.203-.369.537-.648.952-.648m-.684 1.125c-.434 0-.605.963-.645 1.215-.04.242-.168 1.223.248 1.223.451 0 .609-.936.655-1.223.041-.261.157-1.215-.259-1.215M6.887 56.616c.425 0 .67.28.756.648h.018l.088-.558h1.274l-.722 4.544H7.027l.081-.513H7.09c-.226.342-.53.603-.936.603-1.03 0-.977-1.638-.861-2.367.124-.782.528-2.357 1.594-2.357m.327 1.125c-.424 0-.603.954-.645 1.215-.045.287-.176 1.223.276 1.223.406 0 .598-.98.637-1.223.04-.252.166-1.215-.268-1.215M11.996 61.25h-1.274l.081-.513h-.018c-.226.342-.53.603-.936.603-1.03 0-.977-1.638-.861-2.367.124-.782.528-2.357 1.594-2.357.425 0 .67.28.756.648h.018l.52-3.275h1.274zm-1.087-3.51c-.424 0-.603.955-.644 1.216-.046.287-.177 1.223.275 1.223.406 0 .598-.98.637-1.223.04-.252.166-1.215-.268-1.215M16.446 56.616c.84 0 1.498.747 1.198 2.178l-.11.522h-2.015c-.043.333-.176 1.052.312 1.052.325 0 .446-.252.49-.522h1.083c-.241.837-.752 1.494-1.683 1.494-1.291 0-1.57-1.143-1.392-2.268.173-1.088.788-2.456 2.116-2.456m-.173.972c-.389 0-.553.522-.599.81l-.021.135h.93l.018-.108c.047-.297.07-.837-.328-.837M28.28 56.616c.84 0 1.498.747 1.198 2.178l-.11.522h-2.014c-.044.333-.176 1.052.311 1.052.326 0 .447-.252.49-.522h1.084c-.242.837-.753 1.494-1.683 1.494-1.292 0-1.571-1.143-1.392-2.268.173-1.088.788-2.456 2.116-2.456m-.173.972c-.388 0-.552.522-.598.81l-.022.135h.93l.018-.108c.047-.297.07-.837-.328-.837" clip-rule="evenodd"/><path fill="#fed" fill-opacity=".929" d="M31.749 56.616c.46 0 .83.117 1.158.387l-.662.927c-.155-.162-.305-.297-.567-.297-.226 0-.365.135-.397.333-.066.53 1.388.423 1.172 1.781-.144.9-.778 1.593-1.717 1.593-.488 0-.96-.207-1.29-.522l.703-.9c.164.162.332.297.585.297a.44.44 0 0 0 .43-.378c.114-.602-1.382-.45-1.153-1.89.137-.863.934-1.33 1.738-1.33"/><path fill="#fed" fill-opacity=".929" fill-rule="evenodd" d="M37.034 56.616c.424 0 .67.28.755.648h.018l.09-.558h1.273l-.723 4.544h-1.274l.082-.513h-.018c-.226.342-.53.603-.936.603-1.03 0-.977-1.638-.862-2.367.125-.782.529-2.357 1.595-2.357m.327 1.125c-.425 0-.603.954-.645 1.215-.046.287-.176 1.223.275 1.223.407 0 .6-.98.638-1.223.04-.252.166-1.215-.268-1.215M48.272 56.616c.425 0 .67.28.756.648h.018l.089-.558h1.273l-.722 4.544h-1.274l.081-.513h-.018c-.226.342-.53.603-.936.603-1.03 0-.977-1.638-.861-2.367.124-.782.528-2.357 1.594-2.357m.327 1.125c-.424 0-.603.954-.644 1.215-.046.287-.177 1.223.275 1.223.406 0 .599-.98.637-1.223.04-.252.166-1.215-.268-1.215" clip-rule="evenodd"/><path fill="#fed" fill-opacity=".929" d="M52.419 56.616c.46 0 .83.117 1.158.387l-.662.927c-.155-.162-.306-.297-.568-.297-.225 0-.364.135-.396.333-.066.53 1.387.423 1.171 1.781-.143.9-.777 1.593-1.716 1.593-.488 0-.961-.207-1.29-.522l.703-.9c.164.162.332.297.585.297a.44.44 0 0 0 .43-.378c.114-.602-1.382-.45-1.153-1.89.137-.863.934-1.33 1.738-1.33"/><path fill="#fed" fill-opacity=".929" fill-rule="evenodd" d="M57.167 57.264h.018c.203-.369.537-.648.952-.648 1.075 0 .97 1.575.845 2.358-.116.728-.566 2.366-1.605 2.366-.415 0-.636-.26-.744-.603h-.018l-.082.513H55.26l1.154-7.261h1.274zm.286.477c-.434 0-.605.963-.645 1.215-.039.242-.168 1.223.248 1.223.434 0 .61-.936.655-1.223.042-.261.157-1.215-.258-1.215M60.83 56.616c.424 0 .669.28.755.648h.018l.089-.558h1.273l-.722 4.544h-1.274l.081-.513h-.017c-.226.342-.53.603-.937.603-1.03 0-.977-1.638-.86-2.367.124-.782.528-2.357 1.594-2.357m.327 1.125c-.425 0-.604.954-.645 1.215-.046.287-.177 1.223.275 1.223.407 0 .599-.98.637-1.223.04-.252.166-1.215-.267-1.215M67.144 56.616c.425 0 .67.28.755.648h.019l.088-.558h1.274l-.722 4.544h-1.274l.081-.513h-.018c-.226.342-.53.603-.936.603-1.03 0-.977-1.638-.861-2.367.124-.782.528-2.357 1.594-2.357m.328 1.125c-.425 0-.604.954-.646 1.215-.045.287-.176 1.223.276 1.223.406 0 .598-.98.637-1.223.04-.252.166-1.215-.267-1.215M73.902 56.616c1.364 0 1.543 1.206 1.358 2.367-.185 1.16-.745 2.357-2.11 2.357-1.363 0-1.543-1.197-1.359-2.357.185-1.161.747-2.367 2.111-2.367m-.182 1.143c-.443 0-.614.963-.655 1.224-.042.26-.177 1.223.266 1.223.442 0 .614-.962.655-1.223s.177-1.224-.266-1.224" clip-rule="evenodd"/><path fill="#fed" fill-opacity=".929" d="m3.624 58.56.021-.018a4.2 4.2 0 0 1 .055-1.026l.485-3.05H5.53L4.452 61.25H3.178l-1.01-4.094-.022.018-.045.684-.036.279-.495 3.113H.224l1.079-6.784h1.292zM13.658 61.25h-1.274l.723-4.544h1.274zM26.155 57.768a1.3 1.3 0 0 0-.196-.018c-.85 0-.947.558-1.055 1.233l-.36 2.267H23.27l.723-4.544h1.274l-.088.549h.018c.298-.396.65-.675 1.154-.72zM34.996 56.706h.524l-.166 1.044h-.524l-.556 3.5H33l.556-3.5h-.442l.165-1.044h.443l.2-1.26h1.275zM45.896 56.616c.822 0 .678.909.585 1.494l-.5 3.14h-1.273l.392-2.465c.037-.234.206-.9-.173-.9-.299 0-.392.306-.425.513l-.454 2.852h-1.274l.405-2.546c.036-.225.19-.801-.17-.801-.317 0-.408.288-.445.522l-.45 2.825h-1.273l.723-4.544h1.274l-.107.729h.018c.287-.441.708-.819 1.25-.819.47 0 .666.36.663.774h.018c.272-.405.728-.774 1.216-.774M65.525 57.768a1.3 1.3 0 0 0-.196-.018c-.85 0-.947.558-1.054 1.233l-.36 2.267H62.64l.722-4.544h1.274l-.087.549h.018c.297-.396.649-.675 1.153-.72zM71.349 56.706h.524l-.166 1.044h-.524l-.557 3.5h-1.273l.556-3.5h-.442l.166-1.044h.442l.2-1.26h1.274zM14.11 54.547c.442 0 .724.387.655.819s-.498.8-.94.8c-.443 0-.745-.369-.674-.819.073-.458.498-.8.959-.8M50.31 54.88l-1.363 1.241-.566-.36 1.074-1.295zM10.636 41.45c.563 0 1.262.037 1.262.77 0 .76-.65.859-1.249.859h-.337v-1.63zM20.642 41.45c.587 0 1.1.086 1.1.808 0 .697-.563.784-1.125.784h-.237v-1.593zM51.633 41.823c1.249 0 2.01.56 2.01 1.878 0 1.232-.873 1.754-2.01 1.754h-.212v-3.633zM63.637 42.01c.063.397.125.808.225 1.206l.4 1.655h-1.374l.624-2.862z"/><path fill="#fed" fill-opacity=".929" fill-rule="evenodd" d="M46.224 4.54c2.373.224 4.821.862 6.855 2.175l-2.787 5.44c-1.356-1.088-3.051-1.839-4.821-1.839-1.658 0-3.202.6-3.202 2.101 0 1.726 2.373 2.476 3.691 2.926 4.294 1.426 8.174 3.001 8.174 8.216 0 5.252-3.014 7.953-7.91 9.153v1.899h29.724v16.16H0v-16.16h42.72v-1.674c-1.656 0-3.276-.337-4.858-.938-1.582-.6-3.201-1.312-4.444-2.476l3.088-5.664c1.733 1.613 4.407 3.15 6.818 3.15 1.582 0 3.54-.9 3.54-2.738 0-2.1-2.938-2.476-5.913-3.563-2.938-1.088-5.914-2.776-5.914-7.353 0-4.427 3.089-8.516 7.684-8.816V0h3.503zM7.014 48.266h3.298v-2.824h1.749c1.91 0 3.11-1.195 3.11-3.11 0-2.327-1.624-3.447-3.822-3.447H7.014zm10.018 0h3.348v-3.01h.062l1.5 3.01h3.946l-2.048-3.048c-.188-.274-.4-.423-.575-.56v-.075c1.274-.423 1.824-1.02 1.824-2.438 0-2.364-1.799-3.26-3.922-3.26h-4.135zm10.343 0h6.433v-2.563h-2.986v-.92h2.636v-2.439h-2.636v-.896h2.886v-2.563h-6.333zm8.719 0h3.272v-3.048c0-.622-.1-1.232-.212-1.879h.1l3.01 4.927h3.273v-9.38h-3.273v2.811c0 .796.15 1.605.288 2.389h-.1l-3.073-5.2h-3.285zm11.904 0h4.334c2.761 0 4.735-1.767 4.735-4.553 0-3.447-2.424-4.828-5.584-4.828h-3.485zm10.38 0h3.623l.275-1.17h2.586l.312 1.17h3.622l-3.36-9.38h-3.785z" clip-rule="evenodd"/><path fill="#fed" fill-opacity=".929" fill-rule="evenodd" d="M4.18 12.88c.816 0 6.527-.508 6.527 5.663 0 3.58-2.32 5.637-5.839 5.637l-.841-.05v7.897H.228V12.88zm-.153 8.176c1.836.077 2.881-.609 2.881-2.564 0-1.371-.535-2.489-2.167-2.489h-.714zM15.832 12.88c2.422 0 6.757.254 6.757 5.485 0 2.108-.841 3.91-2.728 4.952l3.34 8.71h-4.003l-3.34-8.837h-.052v8.837h-3.798V12.88zm3.06 5.51c0-1.371-.663-2.488-2.575-2.387h-.51v5.104l.662.026c1.734 0 2.423-1.168 2.423-2.743" clip-rule="evenodd"/><path fill="#fed" fill-opacity=".929" d="M32.558 16.435h-3.85V20.6H32.1v3.555h-3.39v4.317h3.9v3.555h-7.7V12.88h7.65zM63.639 16.435h-3.008v15.592h-3.8V16.435h-2.983V12.88h9.791z"/><path fill="#fed" fill-opacity=".929" fill-rule="evenodd" d="M75.929 32.027h-4.054l-.714-3.225h-3.85l-.689 3.225h-3.773L67.31 12.88h4.004zm-7.19-11.326-.817 5.104H70.6l-.97-5.104-.433-2.895h-.05z" clip-rule="evenodd"/></svg>