<svg xmlns="http://www.w3.org/2000/svg" width="77" height="56" fill="none" viewBox="0 0 77 56"><path fill="#fed" fill-opacity=".929" d="M50.276 54.145a1.08 1.08 0 0 1-1.093 1.091H31.297a1.074 1.074 0 0 1-1.085-1.091zM33.543 48.637c.952 0 1.7.75 1.7 1.631 0 .89-.748 1.638-1.7 1.63-.952 0-1.7-.749-1.7-1.63 0-.882.748-1.631 1.7-1.631M46.944 48.637c.952 0 1.701.75 1.701 1.631 0 .89-.75 1.63-1.7 1.63-.952 0-1.7-.749-1.701-1.63 0-.881.749-1.63 1.7-1.631"/><path fill="#fed" fill-opacity=".929" fill-rule="evenodd" d="M50.346 53.606H36.422c.335-.07.607-.474.678-.545l1.498-1.904.608.819.679-.882-.609-.748.882-1.155.546-.678c.062-.07.132-.141.132-.274v-.202c-.07-.335-.405-.476-.678-.406-.07.07-.203.133-.273.203l-.273.405-.952 1.225-1.294-1.63c-.211-.203-.547-.273-.82-.07-.203.203-.273.546-.07.749l1.427 1.833-1.77 2.309c-.749.889-1.498 1.092-1.974 1.092h-3.947v-6.6h13.87c-.336.071-.609.476-.68.546l-1.497 1.904-.608-.82-.679.882.608.75-.881 1.153-.546.679a.486.486 0 0 0 .07.749c.133.07.343.14.476.07.07-.07.203-.133.273-.203l.273-.405.952-1.225 1.295 1.63c.21.203.546.273.819.07.202-.202.273-.546.07-.748L42.6 50.346l1.833-2.317c.811-1.022 1.7-1.092 2.106-1.092h3.807zm-16.81-6.06c-1.569 0-2.793 1.224-2.793 2.722s1.225 2.722 2.792 2.722c1.568 0 2.793-1.224 2.793-2.722 0-1.49-1.225-2.715-2.793-2.723m13.4 0c-1.567 0-2.792 1.224-2.792 2.722s1.225 2.722 2.793 2.722 2.792-1.224 2.792-2.722c0-1.49-1.224-2.715-2.792-2.723" clip-rule="evenodd"/><path fill="#fed" fill-opacity=".929" d="m27.139 48.092.819-2.583h1.154l-1.497 3.877c-.273.749-.609 1.092-1.295 1.092-.258 0-.601-.07-.944-.273l.343-.748c.132.07.343.132.476.132.203 0 .273-.07.405-.273l-1.498-3.807h1.155z"/><path fill="#fed" fill-opacity=".929" fill-rule="evenodd" d="M22.045 46.048c.273-.336.678-.609 1.224-.609.89 0 1.7.679 1.77 1.974 0 1.295-.888 1.973-1.77 1.973-.616 0-.951-.203-1.224-.546v.476h-1.092v-5.172h1.092zm.889.272c-.546 0-.952.484-.952 1.093 0 .686.406 1.091.952 1.091s.952-.483.952-1.091c0-.609-.414-1.085-.952-1.093" clip-rule="evenodd"/><path fill="#fed" fill-opacity=".929" d="M49.19 45.307c.61 0 1.156.475 1.148 1.091H30.204a1.08 1.08 0 0 1 1.093-1.092zM51.898 35.58c-1.63 2.043-3.666 3.673-5.983 4.898-2.38 1.294-5.032 2.044-7.684 2.317-2.715.273-5.507.07-8.16-.749l-2.246-.82V37.28c1.022.75 2.114 1.358 3.269 1.904a18.7 18.7 0 0 0 7.004 1.568c2.45.07 4.97-.343 7.279-1.225 2.379-.89 4.555-2.246 6.521-3.947"/><path fill="#fed" fill-opacity=".929" fill-rule="evenodd" d="M32.997 10.952c6.467 0 10.82 4.829 10.804 10.82 0 6.053-3.947 10.882-10.68 10.882-2.246 0-5.506-.679-7.004-2.925v10.608c-1.966-1.022-3.666-2.309-5.234-3.876V11.428h4.898l.344 2.855c1.638-2.309 4.493-3.33 6.872-3.33m-.405 4.962c-3.737 0-5.984 2.652-5.984 5.92 0 3.269 2.45 5.92 5.984 5.92s5.983-2.651 5.983-5.92c0-3.268-2.24-5.92-5.983-5.92" clip-rule="evenodd"/><path fill="#fed" fill-opacity=".929" d="M52.046 32.724h-5.242V10.952h5.242zM60.346 14.08c2.107-2.043 4.283-3.128 6.935-3.128 4.969 0 8.908 3.674 8.908 10.204v11.498l-5.234.07V21.226c0-3.128-1.77-5.578-5.102-5.578-3.33 0-5.374 2.652-5.374 5.85v11.156h-5.172V10.952h4.696zM9.462 10.952c3.269 0 5.718.609 8.097 2.723l-2.863 3.26c-1.497-1.357-3.128-1.833-5.171-1.833-2.45 0-3.807.75-3.807 2.044s1.225 2.044 3.877 2.247c3.947.273 8.908 1.092 8.908 6.53 0 3.603-2.996 6.731-8.908 6.731-3.269 0-6.6-.546-9.595-3.674l2.52-3.604c1.498 1.63 4.828 2.793 7.145 2.855 1.903.07 3.745-.952 3.745-2.45 0-1.427-1.155-1.973-4.15-2.176-3.877-.203-8.574-1.63-8.574-6.256s4.97-6.397 8.776-6.397M39.323 0a21 21 0 0 1 4.22.609c1.093.273 2.044.616 2.996 1.021-.273.14-.546.344-.749.546-.616.546-1.092 1.365-1.303 2.247a19.3 19.3 0 0 0-5.445-1.833l-.202-.07h-.203l-.476-.07c-.133-.071-.344-.07-.476-.07l-.476-.071c-.608-.07-1.295-.07-1.903-.07-1.287.07-2.582.203-3.807.476-1.295.273-2.52.678-3.674 1.224-2.38 1.155-4.555 2.723-6.326 4.627a19.8 19.8 0 0 1 5.85-5.508 18.8 18.8 0 0 1 3.675-1.833c1.295-.476 2.66-.82 4.017-1.022.678-.07 1.427-.133 2.106-.203zM48.98 2.582c1.498 0 3.066 1.022 3.058 2.987 0 1.974-1.56 2.996-3.057 2.996-1.49 0-3.058-1.022-3.058-2.996v-.405c.132-1.56 1.357-2.45 2.651-2.582z"/></svg>