<svg xmlns="http://www.w3.org/2000/svg" width="76" height="14" fill="none" viewBox="0 0 76 14"><path fill="#fed" fill-opacity=".929" d="M22.84 0h1.567c3.101 0 4.52 2.067 4.52 3.994v5.425c0 1.928-1.419 4.006-4.52 4.006h-2.223c-2.725 0-4.419-1.539-4.419-4.006 0-2.551 1.61-4.018 4.42-4.018h2.954v1.673h-2.866c-1.893 0-2.816.761-2.816 2.333 0 1.583.923 2.345 2.816 2.345h2.058c1.846 0 2.904-.924 2.904-2.548V4.209c0-1.625-1.058-2.548-2.904-2.548h-1.263c-1.188 0-1.823.08-2.399.317l-.1.038-.847-1.509.14-.05C20.641.155 21.344 0 22.84 0M8.94.089v9.394c0 1.465.982 2.269 2.765 2.269 1.88 0 2.803-.787 2.803-2.422V.09h1.679v9.457c0 2.353-1.731 3.88-4.407 3.88-1.784 0-2.865-.443-3.686-1.51-.822 1.067-1.904 1.51-3.687 1.51C1.73 13.425 0 11.898 0 9.545V.089h1.692V9.33c0 1.635.923 2.422 2.803 2.422 1.783 0 2.765-.805 2.765-2.27V.09zM37.26 0c1.582 0 2.616.232 3.447.773l.101.064-.96 1.42-.1-.064c-.623-.377-1.407-.532-2.703-.532h-1.628c-1.873 0-2.904.9-2.904 2.548v4.995c0 1.647 1.03 2.548 2.904 2.548h1.628c1.297 0 2.082-.143 2.703-.52l.1-.063.96 1.407-.1.076c-.832.541-1.868.773-3.448.773h-1.92c-3.101 0-4.52-2.078-4.52-4.006V3.993C30.82 2.067 32.24 0 35.342 0z"/><path fill="#fed" fill-opacity=".929" fill-rule="evenodd" d="M48.599 0c3.114 0 4.532 2.067 4.532 3.993V9.42c0 1.927-1.405 4.006-4.507 4.006h-2.222c-3.103 0-4.52-2.078-4.52-4.006V3.993c0-1.926 1.42-3.993 4.532-3.993zm-2.122 1.66c-1.846 0-2.904.924-2.904 2.549v4.995c0 1.647 1.03 2.548 2.904 2.548h2.058c1.847 0 2.905-.924 2.905-2.548V4.209c0-1.625-1.058-2.548-2.905-2.548z" clip-rule="evenodd"/><path fill="#fed" fill-opacity=".929" d="M66.907.025c2.675 0 4.406 1.526 4.406 3.88v9.457h-1.68V4.12c0-1.635-.92-2.434-2.802-2.434-1.784 0-2.765.816-2.765 2.282v9.394h-1.692V3.968c0-1.466-.982-2.282-2.765-2.282-1.88 0-2.79.799-2.79 2.434v9.242h-1.693V3.905c0-2.354 1.73-3.88 4.407-3.88 1.784 0 2.865.444 3.687 1.509.822-1.065 1.9-1.509 3.687-1.509"/><path fill="#fed" fill-opacity=".929" fill-rule="evenodd" d="M74.356.672c.176 0 .297.016.379.05.146.062.227.176.227.356 0 .127-.046.23-.139.291a.5.5 0 0 1-.202.064q.164.025.24.139a.37.37 0 0 1 .076.216v.114c0 .033-.003.064 0 .101a.2.2 0 0 0 .013.076l.012.013h-.24c-.002-.005.002-.008 0-.013-.001-.005.002-.006 0-.013l-.012-.05v-.114c0-.165-.038-.265-.127-.317a.6.6 0 0 0-.278-.051h-.201v.558h-.24V.672zm-.252.165v.52h.227a.7.7 0 0 0 .24-.026.23.23 0 0 0 .151-.228c0-.103-.038-.168-.1-.203a.6.6 0 0 0-.304-.063z" clip-rule="evenodd"/><path fill="#fed" fill-opacity=".929" fill-rule="evenodd" d="M74.381.089q.534.001.91.38.378.377.378.913c0 .359-.126.67-.379.925q-.375.38-.909.38-.535 0-.909-.38a1.28 1.28 0 0 1-.378-.925q0-.535.378-.913.376-.379.91-.38m0 .177q-.458 0-.782.33c-.216.218-.329.49-.329.799s.114.566.329.786q.321.33.782.33.462 0 .783-.33a1.08 1.08 0 0 0 .329-.786c0-.31-.114-.581-.329-.8a1.06 1.06 0 0 0-.783-.329" clip-rule="evenodd"/></svg>